<?xml version="1.0" encoding="utf-8"?>
<!-- Generator: Adobe Illustrator 15.0.0, SVG Export Plug-In . SVG Version: 6.00 Build 0)  -->
<!DOCTYPE svg PUBLIC "-//W3C//DTD SVG 1.1//EN" "http://www.w3.org/Graphics/SVG/1.1/DTD/svg11.dtd">
<svg version="1.1" id="Layer_1" xmlns="http://www.w3.org/2000/svg" xmlns:xlink="http://www.w3.org/1999/xlink" x="0px" y="0px"
	 width="46.7px" height="44.4px" viewBox="0 0 46.7 44.4" enable-background="new 0 0 46.7 44.4" xml:space="preserve">
<path fill="#6BB5B1" d="M18.1,41.1c0,0-1.9,0-3.9-1.301l-1,1.5l1-1.5c-2-1.399-2.7-3.199-2.7-3.199c-0.3-0.5-0.4,0-0.4,0
	c-1.1,4.3,0.8,6.1,1,6.3l0,0l0,0l0,0l0,0c0.2,0.1,2.6,1.2,6.2-1.4C18.3,41.4,18.7,41.2,18.1,41.1z M26.5,36.9c0,0-4,0.2-8.5-2.9
	c-4.5-3.1-5.8-6.8-5.8-6.8c-0.1-0.3-0.2-0.1-0.2-0.1c-1.2,1.8-1.6,2.8-0.9,5.699c0.7,2.7,4,5.101,4.2,5.2l0,0l0,0
	c0.2,0.2,3.6,2.4,6.4,2c2.9-0.399,3.7-1.1,4.9-2.899C26.7,37.1,26.9,36.9,26.5,36.9z M46.5,30.7c-0.701-6.2-4-11.1-5.301-12.5
	c0,0-0.1,0,0-0.3s0.301-1,0.301-1s0-0.101,0.1-0.101s1.699-0.399,2.9-2.1c1.199-1.7,2-5.4-2.101-8.1c0,0,0,0-0.101-0.2
	c0-0.2-0.699-3.101-2.5-4.3l0,0l0,0l0,0l0,0C38,0.9,35,1.4,34.799,1.4c-0.199,0-0.199,0-0.199,0c-4.1-2.8-7.1-0.7-8.301,1
	C25.1,4.1,25.4,5.7,25.4,5.8C25.5,6,25.4,6,25.4,6s-0.601,0.5-0.8,0.7c-0.2,0.2-0.301,0.1-0.301,0.1C22.5,6.1,16.7,4.8,10.7,6.4
	C4.7,8,2.3,10.2,1,12.1C-0.3,14-1,17.9,3.1,20.7s10,2.5,10,2.5c0.2,0,0.2,0.1,0.2,0.1c1.4,5.101,6.1,8,6.5,8.2c0.3,0.2,4.8,3.5,10,3
	c0,0,0.101,0,0.201,0.101c0,0,1.899,5.5,6,8.3c4.1,2.8,7.5,0.7,8.799-1.2C46,39.9,47.2,36.9,46.5,30.7z M41.4,9.4
	c1.2,0.8,1.601,2.5,0.7,3.7c-0.801,1.199-2.5,1.5-3.7,0.699c-1.2-0.8-1.5-2.5-0.7-3.699C38.5,8.9,40.2,8.5,41.4,9.4z M32.5,3.3
	C33.7,4.1,34,5.8,33.2,7c-0.8,1.2-2.5,1.5-3.699,0.7C28.299,6.9,28,5.2,28.799,4C29.6,2.7,31.2,2.4,32.5,3.3z M2.9,15.7
	c0,0-0.9-5.3,10.9-7c13-1.9,13.6,4.4,13.6,4.4s0.899,4.8-10.3,7C5.9,22.2,2.5,16.3,2.9,15.7z M23.3,26.3L23.3,26.3L23.3,26.3
	L23.3,26.3L23.3,26.3c-3-2-4.1-3.8-4.1-3.8c2.5-0.399,5.5-1.899,5.5-1.899l1.6,1.199l0,0l0,0l0,0l0,0L28,22.9c0,0-0.4,3.3,0.199,5.8
	C28.299,28.7,26.2,28.4,23.3,26.3z M40.6,41.5c-0.4,0.601-7.1-0.5-9.301-11.7C29.2,18.6,34,17.7,34,17.7s6.1-1.8,9.1,11
	C45.9,40.4,40.6,41.5,40.6,41.5z"/>
</svg>
