<?xml version="1.0" encoding="utf-8"?>
<!-- Generator: Adobe Illustrator 18.0.0, SVG Export Plug-In . SVG Version: 6.00 Build 0)  -->
<!DOCTYPE svg PUBLIC "-//W3C//DTD SVG 1.1//EN" "http://www.w3.org/Graphics/SVG/1.1/DTD/svg11.dtd">
<svg version="1.1" xmlns="http://www.w3.org/2000/svg" xmlns:xlink="http://www.w3.org/1999/xlink" x="0px" y="0px"
	 viewBox="4072.966 3246.598 31.08 31.08" enable-background="new 4072.966 3246.598 31.08 31.08" xml:space="preserve">
<g id="Layer_1">
	<g>
		<g>
			<g>
				<path fill="#2DB9E7" d="M4104.046,3262.138c0,0.34-0.28,0.62-0.63,0.62h-3.61l1.94,1.98c0.24,0.25,0.24,0.64-0.01,0.88
					c-0.24,0.24-0.64,0.24-0.88-0.01l-2.8-2.85h-8.05l5.7,5.7l3.99-0.05c0.34,0,0.63,0.28,0.63,0.62c0,0.35-0.28,0.63-0.62,0.64
					l-2.76,0.02l2.54,2.55c0.25,0.25,0.25,0.64,0,0.89c-0.24,0.24-0.63,0.24-0.88-0.01l-2.55-2.55l-0.03,2.77
					c-0.01,0.35-0.28,0.62-0.63,0.62c-0.34,0-0.62-0.28-0.62-0.63l0.04-4l-5.69-5.69v8.05l2.85,2.79c0.25,0.25,0.25,0.64,0.01,0.89
					c-0.12,0.12-0.28,0.19-0.44,0.19c-0.16,0-0.32-0.06-0.44-0.18l-1.98-1.94v3.61c0,0.35-0.28,0.63-0.62,0.63
					c-0.35,0-0.63-0.28-0.63-0.63v-3.6l-1.97,1.93c-0.12,0.12-0.28,0.18-0.44,0.18s-0.32-0.07-0.45-0.19
					c-0.24-0.25-0.23-0.64,0.01-0.89l2.85-2.78v-8.06l-5.69,5.69l0.05,3.99c0,0.36-0.28,0.63-0.63,0.64c-0.16,0-0.33-0.07-0.44-0.18
					c-0.11-0.11-0.18-0.27-0.18-0.44l-0.03-2.77l-2.56,2.55c-0.24,0.25-0.64,0.25-0.88,0.01c-0.25-0.25-0.25-0.64,0-0.89l2.55-2.55
					l-2.76-0.02c-0.17,0-0.33-0.07-0.44-0.19c-0.11-0.11-0.18-0.27-0.18-0.45c0-0.35,0.29-0.62,0.63-0.62l3.98,0.05l5.7-5.7h-8.04
					l-2.79,2.85c-0.25,0.25-0.64,0.25-0.89,0.01c-0.12-0.12-0.19-0.28-0.19-0.44c0-0.16,0.06-0.32,0.18-0.44l1.94-1.98h-3.61
					c-0.35,0-0.63-0.28-0.63-0.62c0-0.35,0.28-0.63,0.63-0.63h3.6l-1.93-1.97c-0.12-0.12-0.18-0.28-0.18-0.44s0.07-0.32,0.19-0.45
					c0.25-0.24,0.64-0.23,0.89,0.01l2.78,2.85h8.04l-5.68-5.68l-3.98,0.04c-0.36,0-0.63-0.28-0.64-0.62c0-0.17,0.06-0.33,0.18-0.45
					c0.11-0.11,0.26-0.18,0.43-0.18l2.78-0.03l-2.56-2.55c-0.24-0.25-0.24-0.65,0-0.89s0.64-0.24,0.89,0l2.54,2.55l0.03-2.76
					c0-0.17,0.07-0.32,0.18-0.44c0.12-0.11,0.28-0.17,0.46-0.18c0.34,0.01,0.61,0.29,0.62,0.64l-0.05,3.98l5.69,5.69v-8.05
					l-2.85-2.79c-0.24-0.24-0.25-0.64-0.01-0.88c0.25-0.25,0.64-0.25,0.89-0.01l1.97,1.93v-3.6c0-0.35,0.28-0.63,0.63-0.63
					c0.34,0,0.62,0.28,0.62,0.63v3.61l1.98-1.94c0.25-0.24,0.64-0.24,0.88,0.01c0.24,0.24,0.24,0.64-0.01,0.88l-2.85,2.8v8.04
					l5.69-5.69l-0.04-3.99c0-0.34,0.28-0.63,0.62-0.63c0.35,0,0.63,0.28,0.63,0.62l0.03,2.76l2.55-2.55c0.24-0.24,0.64-0.24,0.89,0
					c0.24,0.24,0.24,0.64-0.01,0.89l-2.55,2.55l2.77,0.03c0.35,0.01,0.62,0.28,0.61,0.63c0,0.34-0.28,0.62-0.62,0.61l-4-0.03
					l-5.68,5.68h8.05l2.79-2.85c0.24-0.24,0.64-0.25,0.88-0.01c0.25,0.25,0.25,0.64,0.01,0.89l-1.93,1.97h3.6
					C4103.766,3261.508,4104.046,3261.788,4104.046,3262.138z"/>
			</g>
			<g>
				<path fill="#2DB9E7" d="M4088.505,3277.048"/>
			</g>
		</g>
	</g>
</g>
<g id="Layer_2">
</g>
</svg>
