<?xml version="1.0" encoding="utf-8"?>
<!-- Generator: Adobe Illustrator 16.0.0, SVG Export Plug-In . SVG Version: 6.00 Build 0)  -->
<!DOCTYPE svg PUBLIC "-//W3C//DTD SVG 1.1//EN" "http://www.w3.org/Graphics/SVG/1.1/DTD/svg11.dtd">
<svg version="1.1" id="Layer_1" xmlns="http://www.w3.org/2000/svg" xmlns:xlink="http://www.w3.org/1999/xlink" x="0px" y="0px"
	 width="48px" height="48px" viewBox="0 0 48 48" style="enable-background:new 0 0 48 48;" xml:space="preserve">
<style type="text/css">
<![CDATA[

	.st1{fill:#FFFFFF;}
	.st59{fill:#000000;}

]]>
</style>
<g>
	<circle class="st1" cx="24" cy="24" r="24"/>
	<path class="st59" d="M19.1,34.8c0,0-1.1,0-2.3-0.8l-0.6,0.9l0.6-0.9c-1.2-0.8-1.6-1.9-1.6-1.9c-0.2-0.3-0.2,0-0.2,0
		c-0.7,2.5,0.5,3.6,0.6,3.7l0,0c0,0,0,0,0,0c0,0,0,0,0,0l0,0c0.1,0.1,1.5,0.7,3.7-0.8C19.2,35.1,19.4,34.9,19.1,34.8z M24.1,32.4
		c0,0-2.3,0.1-5-1.7c-2.7-1.8-3.5-4.1-3.5-4.1c-0.1-0.2-0.1-0.1-0.1-0.1c-0.7,1.1-0.9,1.7-0.5,3.4c0.4,1.6,2.4,3,2.5,3.1
		c0,0,0,0,0,0l0,0c0.1,0.1,2.1,1.4,3.8,1.2c1.7-0.2,2.2-0.7,2.9-1.7C24.2,32.5,24.3,32.4,24.1,32.4z M35.9,28.7
		c-0.4-3.7-2.4-6.6-3.2-7.4c0,0-0.1,0,0-0.2c0.1-0.2,0.2-0.6,0.2-0.6s0,0,0.1-0.1c0.1,0,1-0.2,1.7-1.2s1.2-3.2-1.2-4.8
		c0,0,0,0,0-0.1c0-0.1-0.4-1.9-1.5-2.6l0,0c0,0,0,0,0,0c0,0,0,0,0,0l0,0c-1.1-0.7-2.8-0.4-2.9-0.4c-0.1,0-0.1,0-0.1,0
		c-2.4-1.6-4.2-0.4-4.9,0.6c-0.7,1-0.5,2-0.5,2c0,0.1,0,0.1,0,0.1s-0.4,0.3-0.5,0.4c-0.1,0.1-0.2,0-0.2,0c-1.1-0.4-4.5-1.2-8.1-0.2
		c-3.6,0.9-5,2.2-5.8,3.4c-0.8,1.1-1.2,3.4,1.2,5.1c2.4,1.7,5.9,1.5,5.9,1.5c0.1,0,0.1,0.1,0.1,0.1c0.8,3,3.6,4.8,3.8,4.9
		c0.2,0.1,2.8,2.1,5.9,1.8c0,0,0.1,0,0.1,0.1c0,0,1.1,3.3,3.6,5c2.4,1.7,4.4,0.4,5.2-0.7C35.7,34.2,36.4,32.4,35.9,28.7z M32.9,16
		c0.7,0.5,0.9,1.5,0.4,2.2c-0.5,0.7-1.5,0.9-2.2,0.4c-0.7-0.5-0.9-1.5-0.4-2.2C31.2,15.7,32.2,15.5,32.9,16z M27.6,12.4
		c0.7,0.5,0.9,1.5,0.4,2.2c-0.5,0.7-1.5,0.9-2.2,0.4c-0.7-0.5-0.9-1.5-0.4-2.2C25.9,12.1,26.9,11.9,27.6,12.4z M10,19.8
		c0,0-0.6-3.2,6.5-4.2c7.7-1.1,8.1,2.6,8.1,2.6s0.5,2.9-6.1,4.1C11.8,23.6,9.8,20.2,10,19.8z M22.2,26.1L22.2,26.1
		C22.2,26.1,22.2,26.1,22.2,26.1C22.2,26.1,22.2,26.1,22.2,26.1L22.2,26.1c-1.8-1.2-2.4-2.2-2.4-2.2c1.5-0.2,3.3-1.1,3.3-1.1l1,0.7
		l0,0l0,0l0,0l0,0l1,0.7c0,0-0.2,2,0.1,3.4C25.1,27.5,23.9,27.3,22.2,26.1z M32.5,35.1c-0.2,0.3-4.2-0.3-5.5-6.9
		c-1.3-6.6,1.6-7.2,1.6-7.2s3.6-1,5.4,6.6C35.6,34.4,32.5,35.1,32.5,35.1z"/>
</g>
</svg>
