<?xml version="1.0" encoding="utf-8"?>
<!-- Generator: Adobe Illustrator 17.1.0, SVG Export Plug-In . SVG Version: 6.00 Build 0)  -->
<!DOCTYPE svg PUBLIC "-//W3C//DTD SVG 1.1//EN" "http://www.w3.org/Graphics/SVG/1.1/DTD/svg11.dtd">
<svg version="1.1" id="Layer_1" xmlns="http://www.w3.org/2000/svg" xmlns:xlink="http://www.w3.org/1999/xlink" x="0px" y="0px"
	 viewBox="0 0 26.6 32.1" style="enable-background:new 0 0 26.6 32.1;" xml:space="preserve">
<style type="text/css">
	.st0{fill:#000100;}
	.st1{fill:#29ABE2;}
	.st2{opacity:0.5;fill:#00AEEB;}
	.st3{fill:#FF7812;}
	.st4{fill:#939598;}
	.st5{fill:#1A1818;}
	.st6{fill:#00AEEB;}
	.st7{fill:none;stroke:#00AEEB;stroke-miterlimit:10;}
	.st8{opacity:0.5;}
	.st9{fill:none;stroke:#00AEEB;stroke-width:2;stroke-miterlimit:10;}
	.st10{fill:none;stroke:#00AEEB;stroke-width:2;stroke-linecap:round;stroke-miterlimit:10;}
	.st11{fill:none;stroke:#00AEEB;stroke-width:1.5;stroke-linecap:round;stroke-miterlimit:10;}
	.st12{fill:none;stroke:#939598;stroke-miterlimit:10;}
	.st13{fill:#231F20;}
	.st14{fill:#232020;}
	.st15{fill:none;stroke:#00AEEB;stroke-linecap:round;stroke-miterlimit:10;}
	.st16{fill:#FF8B13;}
	.st17{fill:#2DB9E7;}
	.st18{fill:none;stroke:#FF8B13;stroke-width:1.5;stroke-miterlimit:10;}
	.st19{fill:none;stroke:#FF8B13;stroke-miterlimit:10;}
	.st20{fill:none;stroke:#2DB9E7;stroke-miterlimit:10;}
	.st21{fill:none;stroke:#00AEEB;stroke-width:1.5;stroke-miterlimit:10;}
	.st22{fill:none;stroke:#000000;stroke-linecap:round;stroke-miterlimit:10;}
	.st23{fill:none;stroke:#000000;stroke-width:1.5;stroke-linecap:round;stroke-miterlimit:10;}
	.st24{fill:none;stroke:#000000;stroke-miterlimit:10;}
	.st25{fill:none;stroke:#00AEEB;stroke-width:4;stroke-linecap:round;stroke-miterlimit:10;}
	.st26{opacity:0.5;fill:none;stroke:#00AEEB;stroke-width:4;stroke-linecap:round;stroke-miterlimit:10;}
	.st27{fill:#00AEEB;stroke:#00AEEB;stroke-miterlimit:10;}
	.st28{clip-path:url(#SVGID_2_);fill:#00AEEB;}
	.st29{clip-path:url(#SVGID_4_);fill:#00AEEB;}
	.st30{fill:none;stroke:#00AEEB;stroke-width:0.25;stroke-miterlimit:10;}
	.st31{clip-path:url(#SVGID_6_);fill:#00AEEB;}
	.st32{clip-path:url(#SVGID_8_);fill:#00AEEB;}
	.st33{fill:#EE3A25;}
	.st34{fill:none;stroke:#EE3A25;stroke-width:1.5;stroke-linecap:round;stroke-miterlimit:10;}
	.st35{fill:#FFCE33;}
	.st36{fill:none;stroke:#FFD033;stroke-width:1.5;stroke-linecap:round;stroke-miterlimit:10;}
	.st37{fill:none;stroke:#FFCE33;stroke-linecap:round;stroke-miterlimit:10;}
	.st38{fill:none;stroke:#EE3A25;stroke-linecap:round;stroke-miterlimit:10;}
	.st39{fill:none;stroke:#EE3A25;stroke-width:1.5;stroke-miterlimit:10;}
	.st40{fill:none;stroke:#FFCE33;stroke-width:1.5;stroke-miterlimit:10;}
	.st41{fill:none;stroke:#FFCE33;stroke-width:1.5;stroke-linecap:round;stroke-miterlimit:10;}
	.st42{fill:#EE3A25;stroke:#EE3A25;stroke-width:0.75;stroke-miterlimit:10;}
	.st43{fill:#FFCE33;stroke:#FFD033;stroke-width:0.75;stroke-miterlimit:10;}
	.st44{fill:#7A9A49;}
	.st45{fill:none;stroke:#7A9A49;stroke-width:1.5;stroke-linecap:round;stroke-miterlimit:10;}
	.st46{fill:#7A9A49;stroke:#7A9A49;stroke-width:0.5;stroke-miterlimit:10;}
	.st47{fill:#7A9A49;stroke:#7A9A49;stroke-width:0.75;stroke-miterlimit:10;}
	.st48{fill:none;stroke:#7A9A49;stroke-linecap:round;stroke-miterlimit:10;}
	.st49{fill:none;stroke:#231F20;stroke-width:1.5;stroke-linecap:round;stroke-miterlimit:10;}
	.st50{fill:#1E1E1E;}
	.st51{opacity:0.8;}
	.st52{clip-path:url(#SVGID_10_);fill:#00AEEB;}
	.st53{clip-path:url(#SVGID_12_);fill:#00AEEB;}
	.st54{fill:none;stroke:#231F20;stroke-width:2.5;stroke-linecap:round;stroke-miterlimit:10;}
	.st55{fill:none;stroke:#000000;stroke-width:1.5;stroke-miterlimit:10;}
	.st56{fill:none;stroke:#000000;stroke-width:1.5;stroke-miterlimit:10;stroke-dasharray:3.1606,1.5803;}
	.st57{fill:none;stroke:#000000;stroke-width:1.5;stroke-miterlimit:10;stroke-dasharray:2.6891,1.3445;}
	.st58{fill:none;stroke:#00AEEB;stroke-width:1.5;stroke-miterlimit:10;stroke-dasharray:3.1606,1.5803;}
	.st59{fill:none;stroke:#00AEEB;stroke-width:1.5;stroke-miterlimit:10;stroke-dasharray:2.6891,1.3445;}
	.st60{fill:none;stroke:#231F20;stroke-miterlimit:10;}
	.st61{fill:none;stroke:#939598;stroke-width:1.5;stroke-linecap:round;stroke-miterlimit:10;}
	.st62{fill:none;stroke:#939598;stroke-width:2;stroke-linecap:round;stroke-miterlimit:10;}
	.st63{fill:none;stroke:#00AEEB;stroke-width:2.5;stroke-linecap:round;stroke-miterlimit:10;}
	.st64{opacity:0.5;fill:none;stroke:#00AEEB;stroke-miterlimit:10;}
	.st65{fill:none;stroke:#929497;stroke-width:1.5;stroke-linecap:round;stroke-miterlimit:10;}
	.st66{fill:none;stroke:#929497;stroke-width:1.5;stroke-linecap:round;stroke-miterlimit:10;stroke-dasharray:0.1595,2.8714;}
	.st67{fill:none;stroke:#929497;stroke-width:1.5;stroke-linecap:round;stroke-miterlimit:10;stroke-dasharray:0.1596,2.8719;}
	.st68{fill:none;stroke:#929497;stroke-width:1.5;stroke-linecap:round;stroke-miterlimit:10;stroke-dasharray:0.1596,2.8725;}
	.st69{fill:#231F20;stroke:#929497;stroke-width:1.5;stroke-linecap:round;stroke-miterlimit:10;}
	.st70{fill:#929497;}
	.st71{fill:none;stroke:#626366;stroke-width:1.5;stroke-linecap:round;stroke-miterlimit:10;}
	.st72{stroke:#929497;stroke-width:1.5;stroke-linecap:round;stroke-miterlimit:10;}
	.st73{stroke:#00AEEB;stroke-width:3;stroke-linecap:round;stroke-miterlimit:10;}
	.st74{fill:none;stroke:#00AEEB;stroke-width:3;stroke-linecap:round;stroke-miterlimit:10;}
	.st75{fill:none;stroke:#00AEEB;stroke-width:5;stroke-linecap:round;stroke-miterlimit:10;}
	.st76{fill:none;stroke:#00AEEB;stroke-width:5;stroke-linecap:round;stroke-miterlimit:10;stroke-dasharray:0.2387,11.457;}
	.st77{fill:none;stroke:#00AEEB;stroke-width:5;stroke-linecap:round;stroke-miterlimit:10;stroke-dasharray:0.2387,11.4592;}
	.st78{fill:none;stroke:#00AEEB;stroke-width:5;stroke-linecap:round;stroke-miterlimit:10;stroke-dasharray:0.2388,11.4614;}
	.st79{fill:none;stroke:#00AEEB;stroke-width:5;stroke-linecap:round;stroke-miterlimit:10;stroke-dasharray:0.2388,11.4609;}
	.st80{clip-path:url(#SVGID_14_);}
	.st81{opacity:0.75;}
	.st82{fill:#010100;}
	.st83{fill:none;stroke:#000100;stroke-linecap:round;stroke-miterlimit:10;}
	.st84{fill:none;}
	.st85{opacity:0.25;}
	.st86{fill:#688D39;}
	.st87{stroke:#00AEEB;stroke-linecap:round;stroke-miterlimit:10;}
	.st88{stroke:#939598;stroke-miterlimit:10;}
	.st89{stroke:#00AEEB;stroke-miterlimit:10;}
	.st90{fill:#7A9B49;}
</style>
<g>
	<g>
		<g>
			<path class="st6" d="M3.5,28.3c-0.1,0-0.2,0-0.3-0.1c-0.1-0.1-0.1-0.4,0-0.5l8.4-8.3c0.1-0.1,0.4-0.1,0.5,0
				c0.1,0.1,0.1,0.4,0,0.5l-8.4,8.3C3.7,28.2,3.6,28.3,3.5,28.3z"/>
		</g>
	</g>
	<g>
		<path class="st6" d="M25.6,14.1c0-0.1,0-0.2,0-0.3c0-0.1,0-0.3-0.1-0.4c0-0.1,0-0.3-0.1-0.4c0-0.2-0.1-0.3-0.1-0.5
			c-0.1-0.2-0.1-0.4-0.2-0.7c-0.1-0.2-0.2-0.4-0.3-0.6c1.1-1.2,1.7-2.8,1.7-4.5c0-3.7-3-6.7-6.7-6.7c-3.7,0-6.7,3-6.7,6.7
			c0,0.6,0.1,1.2,0.2,1.7c-0.3,0.2-0.6,0.5-0.9,0.7c-2.1,2.1-2.8,5.1-1.8,7.9L0.6,27.2L0,32.1L5.4,32l10-10c2.7,0.9,5.9,0.2,8-1.9
			c1.4-1.4,2.2-3.3,2.2-5.3c0-0.1,0-0.1,0-0.2c0-0.1,0-0.1,0-0.2C25.6,14.2,25.6,14.2,25.6,14.1z M19.9,1c3.1,0,5.7,2.6,5.7,5.7
			c0,1.4-0.5,2.6-1.3,3.6C23.5,9,22.2,8,20.8,7.5c0,0-0.1,0-0.1,0c-0.2-0.1-0.4-0.2-0.6-0.2c-0.2-0.1-0.4-0.1-0.5-0.1
			c-0.1,0-0.2,0-0.2-0.1c-0.1,0-0.2,0-0.4,0c-0.1,0-0.2,0-0.3,0c-0.1,0-0.1,0-0.2,0c-1.4-0.1-2.9,0.2-4.1,0.9
			c-0.1-0.4-0.1-0.8-0.1-1.2C14.2,3.6,16.7,1,19.9,1z M22.7,19.3c-1.9,1.9-4.8,2.5-7.2,1.6l-0.3-0.1L5,31l-3.8,0.1l0.4-3.5
			l10.3-10.3L11.7,17c-1-2.5-0.4-5.2,1.5-7.1c0.3-0.3,0.7-0.6,1-0.9c0,0,0,0,0,0c1.3-0.8,2.8-1.2,4.3-1.1h0C18.8,8,19,8,19.2,8
			c0.3,0.1,0.6,0.1,0.8,0.2c0.1,0,0.2,0.1,0.4,0.1c0,0,0.1,0,0.1,0c1.3,0.5,2.4,1.5,3.2,2.6c-0.5,0.4-1.1,0.8-1.8,1l-1.8-1.8
			c-0.7-0.7-1.9-0.7-2.6,0c-0.7,0.7-0.7,1.9,0,2.6l2.2,2.2c0.4,0.4,0.8,0.5,1.3,0.5c0.5,0,1-0.2,1.3-0.5c0.6-0.6,0.7-1.5,0.3-2.2
			c0.5-0.2,1-0.5,1.5-0.9l0,0c0,0.1,0,0.1,0.1,0.2c0.1,0.2,0.2,0.4,0.2,0.6c0,0.2,0.1,0.3,0.1,0.5c0,0.2,0.1,0.4,0.1,0.6
			c0,0.1,0,0.2,0,0.4c0,0.1,0,0.1,0,0.2C24.7,16.2,24,18,22.7,19.3z M18.1,12.1L18.1,12.1c-0.3-0.3-0.2-0.8,0.1-1.1
			c0.2-0.2,0.4-0.2,0.6-0.2c0.2,0,0.4,0.1,0.6,0.2l1.3,1.4c-0.3,0-0.6,0.1-0.9,0.1C19.3,12.4,18.7,12.3,18.1,12.1z M19.9,13.4
			c0.6,0,1.2-0.1,1.7-0.2c0.3,0.3,0.3,0.9,0,1.2c-0.3,0.3-0.9,0.3-1.2,0l-1-1C19.5,13.4,19.7,13.4,19.9,13.4z"/>
		<path class="st6" d="M18.6,7c-0.1,0-0.1,0-0.2,0c0,0,0,0,0.1,0C18.5,6.9,18.6,7,18.6,7z"/>
		<path class="st6" d="M24.2,12.1c0-0.1,0-0.1-0.1-0.2l0,0C24.1,12,24.1,12.1,24.2,12.1z"/>
		<path class="st6" d="M25.7,14.6c0,0,0,0.1,0,0.1C25.6,14.7,25.6,14.6,25.7,14.6C25.7,14.6,25.7,14.6,25.7,14.6z"/>
	</g>
</g>
</svg>
