<?xml version="1.0" encoding="utf-8"?>
<!-- Generator: Adobe Illustrator 18.1.0, SVG Export Plug-In . SVG Version: 6.00 Build 0)  -->
<!DOCTYPE svg PUBLIC "-//W3C//DTD SVG 1.1//EN" "http://www.w3.org/Graphics/SVG/1.1/DTD/svg11.dtd">
<svg version="1.1" xmlns="http://www.w3.org/2000/svg" xmlns:xlink="http://www.w3.org/1999/xlink" x="0px" y="0px"
	 viewBox="0 0 33.542 38.272" enable-background="new 0 0 33.542 38.272" xml:space="preserve">
<g id="Background">
</g>
<g id="Artwork">
	<g>
		<g>
			<g>
				<g>
					<path fill="#FFFFFF" d="M23.358,38.272H2.83c-0.38,0-0.687-0.307-0.687-0.687c0-0.38,0.308-0.687,0.687-0.687h9.488v-4.181
						h-3.77C3.835,32.715,0,28.952,0,24.326v-8.932c0-4.626,3.835-8.389,8.548-8.389h9.117c4.713,0,8.548,3.764,8.548,8.389v8.932
						c0,4.626-3.835,8.389-8.548,8.389h-3.972v4.181h9.665c0.38,0,0.687,0.308,0.687,0.687
						C24.045,37.964,23.738,38.272,23.358,38.272z M8.548,8.38c-3.955,0-7.173,3.146-7.173,7.014v8.932
						c0,3.868,3.218,7.014,7.173,7.014h9.117c3.955,0,7.173-3.146,7.173-7.014v-8.932c0-3.868-3.218-7.014-7.173-7.014H8.548z"/>
				</g>
			</g>
		</g>
		<path fill="#FFFFFF" d="M29.684,12.28c-0.38,0-0.687-0.307-0.687-0.687c0-3.868-3.218-7.014-7.173-7.014
			c-0.38,0-0.687-0.308-0.687-0.687c0-0.38,0.307-0.687,0.687-0.687c4.713,0,8.548,3.764,8.548,8.389
			C30.372,11.973,30.064,12.28,29.684,12.28z"/>
		<path fill="#FFFFFF" d="M32.855,6.703c-0.38,0-0.687-0.308-0.687-0.687c0-2.559-2.13-4.64-4.748-4.64
			c-0.38,0-0.687-0.308-0.687-0.687c0-0.38,0.308-0.687,0.687-0.687c3.376,0,6.123,2.699,6.123,6.015
			C33.542,6.395,33.234,6.703,32.855,6.703z"/>
	</g>
</g>
<g id="Grid" display="none">
	<g display="inline">
		<g>
			
				<line fill="none" stroke="#44B3E7" stroke-width="0.25" stroke-miterlimit="10" x1="-311.648" y1="31.745" x2="8.352" y2="31.745"/>
		</g>
		<g>
			
				<line fill="none" stroke="#F15E63" stroke-width="0.25" stroke-miterlimit="10" x1="-311.581" y1="13.206" x2="8.352" y2="13.206"/>
		</g>
	</g>
</g>
</svg>
