<?xml version="1.0" encoding="utf-8"?>
<!-- Generator: Adobe Illustrator 18.0.0, SVG Export Plug-In . SVG Version: 6.00 Build 0)  -->
<!DOCTYPE svg PUBLIC "-//W3C//DTD SVG 1.1//EN" "http://www.w3.org/Graphics/SVG/1.1/DTD/svg11.dtd">
<svg version="1.1" xmlns="http://www.w3.org/2000/svg" xmlns:xlink="http://www.w3.org/1999/xlink" x="0px" y="0px"
	 viewBox="4076.89 3475.93 23.23 32.37" enable-background="new 4076.89 3475.93 23.23 32.37" xml:space="preserve">
<g id="Layer_1">
	<g>
		<g>
			<g>
				<g>
					<g>
						<path fill="#FFFFFF" d="M4095.37,3488.18l-1-1.25c-0.37-0.43-0.71-0.86-1.02-1.27c-2.18-2.92-3.61-5.57-4.37-8.13l-0.48-1.6
							l-0.48,1.6c-0.76,2.57-2.21,5.23-4.41,8.14c-0.4,0.54-0.86,1.13-1.36,1.74c-2.39,2.97-5.36,6.66-5.36,10.79
							c0,4.56,3.26,8.36,8.33,9.68l1.15,0.23c0.4,0.09,0.7,0.11,0.98,0.13c0.35,0.05,0.63,0.06,0.89,0.06h0.46
							c0.26,0,0.55,0,0.79-0.04c0.46-0.04,0.78-0.07,1.12-0.12l0.79-0.17c0.25-0.06,0.34-0.09,0.47-0.11
							c1.54-0.41,2.94-1.05,4.14-1.92c2.61-1.88,4.11-4.7,4.11-7.74C4100.09,3494.48,4097.65,3491.08,4095.37,3488.18z
							 M4095.43,3505.13c-1.11,0.79-2.39,1.39-3.78,1.75c-0.11,0.02-0.22,0.05-0.48,0.12l-0.74,0.16c-0.3,0.04-0.59,0.07-1.06,0.11
							c-0.2,0.03-0.41,0.03-0.61,0.03h-0.52c-0.22,0-0.46-0.01-0.82-0.05c-0.24-0.02-0.49-0.04-0.85-0.12l-1.12-0.22
							c-4.6-1.2-7.56-4.62-7.56-8.71c0-3.78,2.85-7.32,5.14-10.16c0.5-0.62,0.98-1.22,1.38-1.77c1.88-2.48,3.23-4.81,4.09-7.05
							c0.86,2.23,2.19,4.55,4.05,7.03c0.31,0.43,0.67,0.87,1.04,1.32l0.99,1.23c2.19,2.77,4.52,6,4.54,9.4
							C4099.12,3500.91,4097.77,3503.44,4095.43,3505.13z"/>
						<path fill="#FFFFFF" d="M4092.97,3496.98c0,0.27-0.23,0.5-0.5,0.5H4089v3.46c0,0.28-0.22,0.5-0.5,0.5
							c-0.27,0-0.5-0.22-0.5-0.5v-3.46h-3.46c-0.28,0-0.5-0.23-0.5-0.5c0-0.28,0.22-0.5,0.5-0.5h3.46v-3.46c0-0.28,0.23-0.5,0.5-0.5
							c0.28,0,0.5,0.22,0.5,0.5v3.46h3.47C4092.74,3496.48,4092.97,3496.7,4092.97,3496.98z"/>
					</g>
				</g>
			</g>
		</g>
	</g>
</g>
<g id="Layer_2">
</g>
</svg>
