<?xml version="1.0" encoding="utf-8"?>
<!-- Generator: Adobe Illustrator 18.0.0, SVG Export Plug-In . SVG Version: 6.00 Build 0)  -->
<!DOCTYPE svg PUBLIC "-//W3C//DTD SVG 1.1//EN" "http://www.w3.org/Graphics/SVG/1.1/DTD/svg11.dtd">
<svg version="1.1" xmlns="http://www.w3.org/2000/svg" xmlns:xlink="http://www.w3.org/1999/xlink" x="0px" y="0px"
	 viewBox="4179.917 3475.929 23.233 32.375" enable-background="new 4179.917 3475.929 23.233 32.375" xml:space="preserve">
<g id="Layer_1">
	<g>
		<g>
			<g>
				<path fill="#FFFFFF" d="M4195.496,3497.478h-7.925c-0.276,0-0.5-0.224-0.5-0.5s0.224-0.5,0.5-0.5h7.925
					c0.276,0,0.5,0.224,0.5,0.5S4195.772,3497.478,4195.496,3497.478z"/>
			</g>
		</g>
		<g>
			<g>
				<g>
					<g>
						<g>
							<path fill="#FFFFFF" d="M4191.274,3508.304c-0.266,0-0.545-0.012-0.894-0.061c-0.275-0.021-0.576-0.046-0.982-0.136
								l-1.145-0.227c-5.076-1.321-8.336-5.12-8.336-9.684c0-4.128,2.975-7.82,5.365-10.787c0.495-0.611,0.962-1.196,1.359-1.737
								c2.202-2.916,3.645-5.577,4.413-8.143l0.48-1.602l0.478,1.603c0.762,2.553,2.192,5.21,4.372,8.123
								c0.304,0.416,0.651,0.841,1.013,1.279l1.003,1.25c2.285,2.895,4.725,6.294,4.75,10.011c0,3.04-1.497,5.861-4.107,7.742
								c-1.205,0.869-2.599,1.515-4.143,1.918c-0.127,0.025-0.221,0.051-0.456,0.113l-0.807,0.172
								c-0.342,0.054-0.656,0.08-1.115,0.117c-0.24,0.043-0.531,0.043-0.788,0.043L4191.274,3508.304z M4191.531,3479.219
								c-0.864,2.244-2.211,4.565-4.089,7.052c-0.402,0.547-0.879,1.146-1.384,1.768c-2.29,2.844-5.142,6.384-5.142,10.159
								c0,4.094,2.967,7.513,7.559,8.71l1.127,0.222c0.356,0.079,0.604,0.098,0.847,0.117c0.362,0.048,0.599,0.058,0.824,0.058
								l0.459-0.004c0.019-0.001,0.039,0,0.059,0c0.202,0,0.41-0.001,0.605-0.034c0.472-0.04,0.766-0.064,1.06-0.109l0.739-0.157
								c0.266-0.07,0.375-0.099,0.484-0.119c1.391-0.365,2.673-0.958,3.777-1.754c2.347-1.691,3.692-4.217,3.692-6.929
								c-0.023-3.396-2.353-6.63-4.536-9.395l-0.991-1.235c-0.373-0.451-0.732-0.892-1.044-1.318
								C4193.722,3483.768,4192.388,3481.454,4191.531,3479.219z"/>
						</g>
					</g>
				</g>
			</g>
		</g>
	</g>
</g>
<g id="Layer_2">
</g>
</svg>
