<?xml version="1.0" encoding="utf-8"?>
<!-- Generator: Adobe Illustrator 18.0.0, SVG Export Plug-In . SVG Version: 6.00 Build 0)  -->
<!DOCTYPE svg PUBLIC "-//W3C//DTD SVG 1.1//EN" "http://www.w3.org/Graphics/SVG/1.1/DTD/svg11.dtd">
<svg version="1.1" xmlns="http://www.w3.org/2000/svg" xmlns:xlink="http://www.w3.org/1999/xlink" x="0px" y="0px"
	 viewBox="3972.062 3246.547 21.515 31.131" enable-background="new 3972.062 3246.547 21.515 31.131" xml:space="preserve">
<g id="Layer_1">
	<g>
		<path fill="#FF9C14" d="M3990.728,3260.529c2.814,2.152,2.846,5.966,2.846,6.127l0.003,0.27
			c-0.009,5.931-4.83,10.752-10.747,10.752c-5.902,0-10.732-4.735-10.767-10.554v-0.065c0.039-4.998,3.997-9.285,4.165-9.465
			l0.058-0.061c0.852-0.906,1.733-1.844,2.438-2.9c0.906-1.358,1.381-2.708,1.496-4.248c0.062-0.837-0.071-1.571-0.226-2.421
			l-0.257-1.416l1.018,0.804c8.26,6.529,4.253,14.028,3.956,14.556c-0.13,0.286-0.186,0.499-0.27,1.035l0,0.015
			c-0.047,0.817,0.194,1.53,0.697,2.063c0.56,0.594,1.42,0.935,2.36,0.936c1.688,0,3.058-1.371,3.058-3.055
			c0-0.603-0.184-1.193-0.531-1.708l-0.969-1.357C3989.055,3259.836,3990.039,3259.929,3990.728,3260.529z M3981.151,3248.976
			c0.058,0.474,0.085,0.958,0.046,1.482c-0.127,1.692-0.669,3.235-1.658,4.719c-0.75,1.125-1.66,2.092-2.54,3.028l-0.054,0.057
			c-0.041,0.043-3.867,4.186-3.902,8.801v0.058c0.032,5.369,4.331,9.577,9.787,9.577c5.377,0,9.759-4.382,9.767-9.768l-0.003-0.269
			c0-0.03-0.016-1.99-1.058-3.751c-0.005,2.221-1.813,4.027-4.035,4.027c-1.212-0.001-2.332-0.454-3.076-1.243
			c-0.692-0.734-1.025-1.699-0.963-2.792l0.005-0.075c0.093-0.598,0.163-0.918,0.362-1.348l0.025-0.047
			C3984.018,3261.156,3987.624,3254.924,3981.151,3248.976z"/>
	</g>
</g>
<g id="Layer_2">
</g>
</svg>
