<?xml version="1.0" encoding="utf-8"?>
<!-- Generator: Adobe Illustrator 15.0.0, SVG Export Plug-In . SVG Version: 6.00 Build 0)  -->
<!DOCTYPE svg PUBLIC "-//W3C//DTD SVG 1.1//EN" "http://www.w3.org/Graphics/SVG/1.1/DTD/svg11.dtd">
<svg version="1.1" id="Layer_1" xmlns="http://www.w3.org/2000/svg" xmlns:xlink="http://www.w3.org/1999/xlink" x="0px" y="0px"
	 width="100%" height="100%" viewBox="0 0 44.7 44.7" enable-background="new 0 0 44.7 44.7" xml:space="preserve">
<g>
	<g>
		<path fill="none" stroke="#B3D143" stroke-miterlimit="10" d="M44.2,19.4v5.399c0,1-0.8,1.801-1.8,1.801h-2.101
			c-0.399,1.8-1.1,3.4-2,4.9l1.5,1.5c0.701,0.699,0.701,1.899,0,2.6L36,39.4c-0.701,0.7-1.9,0.7-2.601,0L31.799,38
			c-1.5,0.899-3.199,1.6-5,2.1v2.199c0,1-0.799,1.801-1.799,1.801h-5.4c-1,0-1.8-0.801-1.8-1.801V40.1c-1.8-0.5-3.4-1.1-5-2.1
			l-1.5,1.5c-0.7,0.699-1.9,0.699-2.6,0L5,35.6c-0.7-0.7-0.7-1.9,0-2.6l1.5-1.5c-0.9-1.5-1.6-3.201-2-4.9H2.3
			c-1,0-1.8-0.801-1.8-1.801V19.4c0-1,0.8-1.8,1.8-1.8h2.2c0.5-1.7,1.1-3.4,2-4.9L5,11.2c-0.7-0.7-0.7-1.9,0-2.6l3.8-3.8
			c0.7-0.7,1.9-0.7,2.6,0L13,6.4c1.5-0.9,3.1-1.5,4.8-2v-2c0-1,0.8-1.8,1.8-1.8H25c1,0,1.799,0.8,1.799,1.8v2
			C28.5,4.8,30.1,5.5,31.6,6.4l1.6-1.6c0.7-0.7,1.9-0.7,2.6,0L39.6,8.6c0.699,0.7,0.699,1.9,0,2.6L38,12.8c0.899,1.5,1.6,3.1,2,4.8
			H42.2C43.299,17.6,44.2,18.4,44.2,19.4z"/>
	</g>
	<path fill="none" stroke="#B3D143" stroke-miterlimit="10" d="M30.9,22.3c0,4.701-3.8,8.5-8.5,8.5c-4.7,0-8.5-3.799-8.5-8.5
		c0-4.7,3.8-8.5,8.5-8.5C27,13.8,30.9,17.6,30.9,22.3z"/>
</g>
</svg>
