<?xml version="1.0" encoding="utf-8"?>
<!-- Generator: Adobe Illustrator 18.0.0, SVG Export Plug-In . SVG Version: 6.00 Build 0)  -->
<!DOCTYPE svg PUBLIC "-//W3C//DTD SVG 1.1//EN" "http://www.w3.org/Graphics/SVG/1.1/DTD/svg11.dtd">
<svg version="1.1" xmlns="http://www.w3.org/2000/svg" xmlns:xlink="http://www.w3.org/1999/xlink" x="0px" y="0px"
	 viewBox="3863.481 3590.325 30.427 30.439" enable-background="new 3863.481 3590.325 30.427 30.439" xml:space="preserve">
<g id="Layer_1">
	<g>
		<path fill="#FFFFFF" d="M3893.9,3604.814c0-7.036-5.894-7.727-5.968-7.734c-5.04-0.423-7.267,4.609-7.482,5.121
			c-0.008,0.008-0.008,0.015-0.015,0.022c-0.171,0.393-0.319,0.497-0.379,0.497c-0.096,0-0.267-0.171-0.364-0.326
			c-1.299-2.16,1.462-4.542,1.47-4.557c1.269-0.972,1.759-2.153,1.937-2.769c0.104-0.364,0.119-0.601,0.119-0.616
			c0.015-0.134,0.022-0.267,0.03-0.394c0.007-0.26-0.007-0.505-0.052-0.742c-0.074-0.438-0.223-0.839-0.46-1.188
			c-1.076-1.625-3.489-1.804-4.476-1.804c-0.186,0-0.304,0.008-0.304,0.008c-2.234,0-4.052,0.594-5.418,1.751
			c-0.46,0.394-0.824,0.817-1.113,1.232c-0.178,0.252-0.334,0.505-0.46,0.742c-0.148,0.282-0.267,0.549-0.356,0.78
			c-0.312,0.816-0.378,1.425-0.386,1.455c-0.423,5.203,5.106,7.482,5.158,7.504c0.007,0.007,0.015,0.007,0.022,0.007
			c0.364,0.163,0.468,0.312,0.468,0.364c0.008,0.096-0.163,0.275-0.319,0.371c-0.393,0.23-0.809,0.349-1.247,0.349
			c-1.737,0-3.311-1.819-3.311-1.819c-1.447-1.893-3.318-2.056-3.385-2.056c-1.232-0.141-2.167,0.193-2.872,0.943
			c-1.418,1.514-1.254,4.231-1.247,4.32c0,7.036,5.893,7.727,5.96,7.734c5.025,0.423,7.259-4.587,7.489-5.122
			c0-0.007,0.008-0.015,0.008-0.015c0.171-0.401,0.326-0.505,0.378-0.505c0.097,0,0.275,0.171,0.364,0.327
			c1.299,2.16-1.455,4.542-1.469,4.557c-1.269,0.972-1.752,2.145-1.93,2.761c-0.104,0.371-0.126,0.608-0.126,0.623
			c-0.015,0.148-0.022,0.29-0.03,0.431c0,0.26,0.015,0.504,0.059,0.742c0.074,0.401,0.215,0.772,0.423,1.098
			c1.062,1.67,3.503,1.856,4.506,1.856c0.193,0,0.312-0.008,0.312-0.008c2.234,0,4.06-0.594,5.418-1.759
			c0.445-0.379,0.802-0.787,1.083-1.188c0.186-0.252,0.334-0.505,0.46-0.742c0.163-0.297,0.282-0.572,0.379-0.817
			c0.319-0.816,0.386-1.425,0.386-1.462c0.423-5.196-5.099-7.482-5.158-7.504c-0.008,0-0.015,0-0.022-0.008
			c-0.364-0.163-0.46-0.304-0.468-0.356c-0.007-0.096,0.171-0.275,0.326-0.371c0.386-0.23,0.809-0.349,1.247-0.349
			c1.737,0,3.303,1.819,3.303,1.819c1.455,1.893,3.325,2.056,3.392,2.056c1.225,0.134,2.16-0.193,2.872-0.95
			C3894.063,3607.619,3893.907,3604.903,3893.9,3604.814z M3892.111,3608.621c-0.468,0.497-1.069,0.742-1.833,0.742
			c-0.134,0-0.274-0.007-0.43-0.022c-0.067-0.007-1.625-0.156-2.872-1.781c-0.074-0.089-1.811-2.1-3.889-2.1
			c-0.579,0-1.121,0.148-1.625,0.453c-0.074,0.045-0.727,0.446-0.69,1.054c0.03,0.408,0.341,0.742,0.943,1.009
			c0.007,0,0.022,0.007,0.037,0.015c0.386,0.163,5.04,2.256,4.676,6.732c-0.007,0.008-0.067,0.542-0.342,1.262
			c-0.119,0.312-0.297,0.69-0.549,1.084c-0.148,0.245-0.327,0.497-0.542,0.742c-0.186,0.215-0.393,0.423-0.623,0.623
			c-1.225,1.047-2.887,1.581-4.966,1.581c0,0-0.111,0.007-0.282,0.007c-0.683,0-2.991-0.111-3.875-1.507
			c-0.134-0.215-0.23-0.445-0.29-0.705c-0.059-0.23-0.082-0.475-0.074-0.742c0-0.119,0.007-0.238,0.022-0.364
			c0,0,0.015-0.193,0.096-0.483c0.156-0.527,0.572-1.544,1.685-2.39c0.134-0.119,3.266-2.821,1.641-5.515
			c-0.037-0.074-0.423-0.69-1.002-0.69c-0.416,0-0.764,0.304-1.039,0.898c-0.008,0.015-0.015,0.03-0.022,0.044
			c-0.015,0.052-1.959,4.72-6.25,4.72c-0.163,0-0.334-0.007-0.497-0.022c-0.215-0.022-5.285-0.638-5.285-7.014
			c-0.007-0.03-0.148-2.509,1.047-3.785c0.468-0.497,1.069-0.742,1.833-0.742c0.134,0,0.275,0.007,0.43,0.022
			c0.015,0,1.611,0.141,2.873,1.781c0.074,0.089,1.804,2.101,3.889,2.101c0.572,0,1.121-0.148,1.625-0.453
			c0.074-0.045,0.72-0.446,0.683-1.054c-0.022-0.408-0.342-0.742-0.935-1.009c-0.015,0-0.022-0.008-0.037-0.008
			c-0.334-0.148-5.04-2.241-4.676-6.74c0-0.007,0.059-0.542,0.341-1.262c0.119-0.304,0.282-0.661,0.52-1.047
			c0.141-0.245,0.319-0.49,0.534-0.742c0.193-0.223,0.408-0.445,0.661-0.66c1.225-1.047,2.887-1.581,4.958-1.581
			c0,0,0.111-0.008,0.282-0.008c0.683,0,2.954,0.111,3.86,1.47c0.148,0.23,0.252,0.49,0.312,0.779
			c0.059,0.23,0.082,0.475,0.067,0.742c0,0.104,0,0.215-0.015,0.327c0,0-0.015,0.186-0.097,0.475
			c-0.156,0.534-0.572,1.544-1.685,2.397c-0.134,0.119-3.266,2.82-1.648,5.515c0.044,0.074,0.423,0.69,1.002,0.69
			c0.423,0,0.772-0.304,1.047-0.906c0.007-0.015,0.015-0.03,0.015-0.045c0.022-0.044,1.952-4.713,6.25-4.713
			c0.163,0,0.334,0.007,0.497,0.022c0.215,0.022,5.292,0.638,5.292,7.014C3893.157,3604.858,3893.306,3607.345,3892.111,3608.621z"
			/>
	</g>
</g>
<g id="Layer_2">
</g>
</svg>
