<?xml version="1.0" encoding="utf-8"?>
<!-- Generator: Adobe Illustrator 15.0.2, SVG Export Plug-In . SVG Version: 6.00 Build 0)  -->
<!DOCTYPE svg PUBLIC "-//W3C//DTD SVG 1.1//EN" "http://www.w3.org/Graphics/SVG/1.1/DTD/svg11.dtd">
<svg version="1.1" id="Layer_1" xmlns="http://www.w3.org/2000/svg" xmlns:xlink="http://www.w3.org/1999/xlink" x="0px" y="0px"
	 width="512px" height="586.484px" viewBox="0 0 512 586.484" enable-background="new 0 0 512 586.484" xml:space="preserve">
<path d="M241.925,454.525c0,44.531-36.111,80.642-80.642,80.642c-44.537,0-80.642-36.11-80.642-80.642
	c0-39.533,28.443-72.423,65.979-79.31V190.607h29.324v184.608C213.488,382.103,241.925,414.992,241.925,454.525z M293.242,454.525
	c0,72.881-59.078,131.959-131.959,131.959S29.324,527.406,29.324,454.525c0-51.804,29.861-96.649,73.311-118.241V58.648
	C102.635,26.26,128.895,0,161.283,0s58.648,26.26,58.648,58.648v277.636C263.374,357.876,293.242,402.722,293.242,454.525z
	 M131.959,356.144c-42.396,12.614-73.311,51.89-73.311,98.382c0,56.688,45.948,102.635,102.635,102.635
	s102.635-45.947,102.635-102.635c0-46.492-30.913-85.768-73.311-98.382V58.648c0-16.194-13.13-29.324-29.324-29.324
	s-29.324,13.13-29.324,29.324V356.144z M87.973,43.986v14.662H0V43.986H87.973z M87.973,87.973v14.662H29.324V87.973H87.973z
	 M87.973,131.959v14.662H0v-14.662H87.973z M87.973,175.945v14.662H29.324v-14.662H87.973z M87.973,219.932v14.662H0v-14.662H87.973
	z M87.973,263.918v14.662H29.324v-14.662H87.973z M87.973,307.904v14.662H0v-14.662H87.973z M407.99,285.883
	c-13.817,6.729-31.873,10.095-54.181,10.095c-29.095,0-51.977-8.592-68.629-25.788c-16.652-17.189-24.985-40.084-24.985-68.679
	c0-30.477,9.364-55.19,28.107-74.147c18.729-18.965,43.026-28.444,72.909-28.444c18.514,0,34.093,2.398,46.778,7.188v42.074
	c-12.485-7.295-26.703-10.946-42.669-10.946c-17.525,0-31.687,5.506-42.439,16.509c-10.768,11.004-16.151,25.917-16.151,44.731
	c0,18.049,5.068,32.424,15.234,43.127c10.138,10.711,23.812,16.059,41.009,16.059c16.38,0,31.386-3.645,45.017-10.946V285.883z
	 M473.598,172.816c-10.652,0-19.702-3.607-27.119-10.817c-7.402-7.216-11.111-15.993-11.111-26.346
	c0-10.316,3.709-19.022,11.111-26.103c7.417-7.088,16.467-10.632,27.119-10.632c10.61,0,19.659,3.544,27.148,10.632
	c7.503,7.08,11.254,15.786,11.254,26.103c0,10.353-3.751,19.13-11.254,26.346C493.257,169.209,484.208,172.816,473.598,172.816z
	 M473.684,118.077c-4.582,0-8.477,1.711-11.655,5.134c-3.179,3.422-4.768,7.596-4.768,12.528s1.589,9.149,4.768,12.657
	s7.073,5.263,11.655,5.263c4.496,0,8.362-1.755,11.598-5.263c3.208-3.508,4.826-7.725,4.826-12.657s-1.59-9.106-4.769-12.528
	C482.16,119.788,478.266,118.077,473.684,118.077z"/>
</svg>
