<?xml version="1.0" encoding="utf-8"?>
<!-- Generator: Adobe Illustrator 15.0.0, SVG Export Plug-In . SVG Version: 6.00 Build 0)  -->
<!DOCTYPE svg PUBLIC "-//W3C//DTD SVG 1.1//EN" "http://www.w3.org/Graphics/SVG/1.1/DTD/svg11.dtd">
<svg version="1.1" id="Layer_1" xmlns="http://www.w3.org/2000/svg" xmlns:xlink="http://www.w3.org/1999/xlink" x="0px" y="0px"
	 width="100%" height="100%" viewBox="0 0 51.6 45" enable-background="new 0 0 51.6 45" xml:space="preserve">
<g>
	<path fill="none" stroke="#EFE059" stroke-miterlimit="10" d="M37.2,44.5H15c-0.3,0-1,0-1.3-0.7C13.6,43.4,13.8,43,14.2,42.7
		l7.199-4.5c0.9-0.4,1.5-0.5,1.801-0.5h0.5c-0.301-1-0.601-2.3-0.9-4C22.1,30,21.7,26.1,21.7,25.1V24.7C18.1,25.6,3.7,28.9,2,29.2
		l0,0c-0.5,0.1-0.9,0-1.2-0.3C0.5,28.5,0.5,28.1,0.5,28v-2c0-1,0.6-1.6,1-1.7l20.3-11.1V4.5c0-2.2,1.8-4,4-4c1.1,0,2.1,0.4,2.8,1.2
		c0.8,0.8,1.2,1.8,1.2,2.8v8.7l20.4,11.1c0.3,0.2,1,0.7,1,1.7v2c0,0,0,0.5-0.301,0.8c-0.3,0.3-0.699,0.4-1.199,0.3l0,0
		c-1.5-0.3-12.601-2.8-19.9-4.5v0.5c0,1.301-0.6,8.4-1.6,12.601h0.6c0.4,0,1.1,0,1.8,0.399l7.3,4.5c0.5,0.301,0.7,0.801,0.5,1.2
		C38.2,44.5,37.4,44.5,37.2,44.5z"/>
</g>
</svg>
