<?xml version="1.0" encoding="utf-8"?>
<!-- Generator: Adobe Illustrator 15.0.0, SVG Export Plug-In . SVG Version: 6.00 Build 0)  -->
<!DOCTYPE svg PUBLIC "-//W3C//DTD SVG 1.1//EN" "http://www.w3.org/Graphics/SVG/1.1/DTD/svg11.dtd">
<svg version="1.1" id="Layer_1" xmlns="http://www.w3.org/2000/svg" xmlns:xlink="http://www.w3.org/1999/xlink" x="0px" y="0px"
	 width="121px" height="121.6px" viewBox="0 0 121 121.6" enable-background="new 0 0 121 121.6" xml:space="preserve">
<g>
	<g>
		<g>
			<path fill="#00AEEB" d="M112.029,65.66c-7.381,1.05-14.489-3.57-16.559-10.74c-2.07-7.17,1.5-14.87,8.299-17.91l0.949-0.43
				l-0.92-0.471C98.859,33.55,93.189,33,87.829,34.54c-8.61,2.479-14.781,10.06-15.601,18.84c-2.541-5.05-7.899-10.42-19.11-10.59
				c0,0-0.18-0.01-0.5-0.01c-1.53,0-6.91,0.189-11.89,2.64c-6.23,3.05-9.53,8.31-9.83,15.63c-0.371-0.04-0.891-0.09-1.51-0.09
				c-1.98,0-4.75,0.45-6.721,2.561C21,65.31,20.23,67.95,20.37,71.39C17.92,71.271,8.79,71.45,8.8,80.271
				C8.78,80.4,8.32,83.31,10.35,85.72c1.69,1.99,4.55,3,8.49,3h57.98c0.029,0,0.6,0.062,1.5,0.062c1.859,0,4.58-0.271,6.93-1.552
				c2.99-1.64,4.51-4.41,4.51-8.22c0-0.09,0.04-1.02-0.15-2.34c1.392,0.28,2.802,0.42,4.211,0.42c2.029,0,4.07-0.28,6.029-0.85
				c5.351-1.54,9.86-5.03,12.68-9.83l0.531-0.891L112.029,65.66z M88.76,78.98c0,3.44-1.34,5.92-3.99,7.371
				c-2.278,1.25-5.02,1.431-6.449,1.431c-0.84,0-1.381-0.062-1.439-0.062H18.84c-3.63,0-6.22-0.89-7.71-2.64
				c-1.739-2.04-1.35-4.62-1.339-4.721c0-7.211,6.83-7.989,9.759-7.989c0.781,0,1.291,0.05,1.291,0.05l0.6,0.07L21.4,71.89
				c-0.24-3.43,0.44-6.01,2-7.688c1.72-1.851,4.209-2.24,5.99-2.24c1.11,0,1.89,0.16,1.89,0.16l0.59,0.12l0.01-0.602
				c0.33-17,17.33-17.86,20.74-17.86c0.291,0,0.45,0,0.47,0.011c9.51,0.14,15.881,4.029,18.93,11.529
				c0.041,0.11,0.09,0.21,0.131,0.32c0.011,0.03,0.021,0.061,0.029,0.09c1.141,2.99,1.521,5.98,1.631,8
				c0.129,2.271-0.051,3.82-0.051,3.84l-0.08,0.65l0.65-0.1c5.16-0.841,9.07,0.061,11.529,2.64
				C88.96,74.021,88.77,78.91,88.76,78.98z M74.811,67.04c0.01-0.3,0.039-0.681,0.039-1.15c0.19,0.36,0.4,0.711,0.631,1.062
				C75.26,66.98,75.04,67.01,74.811,67.04z M99.568,75.281c-3.31,0.96-6.81,1.069-10.158,0.319c-0.381-1.721-1.18-3.801-2.82-5.521
				c-2.279-2.41-5.64-3.49-9.98-3.221c-0.698-1.061-1.318-2.18-1.81-3.351c-0.12-2.06-0.521-5.04-1.659-8.06
				c-0.041-9.2,6.109-17.4,14.969-19.95c4.781-1.38,9.82-1,14.32,1.05C95.79,40.06,92.4,47.89,94.51,55.2
				c2.109,7.31,9.131,12.118,16.631,11.56C108.42,70.9,104.35,73.9,99.568,75.281z"/>
		</g>
	</g>
</g>
</svg>
