<?xml version="1.0" encoding="utf-8"?>
<!-- Generator: Adobe Illustrator 15.0.0, SVG Export Plug-In . SVG Version: 6.00 Build 0)  -->
<!DOCTYPE svg PUBLIC "-//W3C//DTD SVG 1.1//EN" "http://www.w3.org/Graphics/SVG/1.1/DTD/svg11.dtd">
<svg version="1.1" id="Layer_1" xmlns="http://www.w3.org/2000/svg" xmlns:xlink="http://www.w3.org/1999/xlink" x="0px" y="0px"
	 width="121px" height="121.6px" viewBox="0 0 121 121.6" enable-background="new 0 0 121 121.6" xml:space="preserve">
<g>
	<g>
		<g>
			<path fill="#00AEEB" d="M89.456,82.775L89.456,82.775c-0.897,0-1.472-0.063-1.495-0.067L29.975,82.71
				c-3.939,0-6.793-1.011-8.48-3.002c-2.036-2.404-1.578-5.32-1.558-5.443c-0.007-8.817,9.12-9.002,11.571-8.886
				c-0.141-3.438,0.633-6.083,2.3-7.868c1.975-2.113,4.748-2.557,6.728-2.557c0.618,0,1.14,0.044,1.507,0.087
				c0.298-7.322,3.601-12.581,9.824-15.636c4.986-2.448,10.363-2.639,11.892-2.639c0.323,0,0.5,0.008,0.5,0.008
				c7.175,0.113,12.716,2.334,16.452,6.603c5.564,6.355,5.406,15.186,5.238,17.648c5.224-0.719,9.189,0.318,11.785,3.048
				c3.396,3.57,3.179,8.709,3.166,8.926c0.002,3.807-1.517,6.58-4.508,8.217C94.036,82.504,91.318,82.775,89.456,82.775z
				 M30.694,66.361c-2.937,0-9.765,0.777-9.765,7.986c-0.011,0.106-0.403,2.682,1.337,4.726c1.49,1.75,4.083,2.639,7.708,2.639
				h58.043c0.062,0.004,0.603,0.063,1.438,0.063h0.001c1.431,0,4.172-0.187,6.455-1.436c2.647-1.449,3.989-3.926,3.989-7.365
				c0.002-0.073,0.201-4.963-2.897-8.218c-2.462-2.583-6.371-3.483-11.526-2.647l-0.652,0.105l0.076-0.656
				c0.013-0.104,1.148-10.571-4.947-17.526c-3.543-4.042-8.833-6.147-15.727-6.257c-0.02-0.001-0.18-0.007-0.469-0.007
				c-3.403,0-20.404,0.861-20.732,17.862l-0.012,0.599l-0.587-0.119c-0.008-0.001-0.787-0.155-1.892-0.155
				c-1.782,0-4.269,0.389-5.996,2.239c-1.562,1.674-2.237,4.261-2.003,7.69l0.042,0.598l-0.596-0.065
				C31.978,66.415,31.474,66.361,30.694,66.361z"/>
		</g>
	</g>
	<g>
		<path fill="#00AEEB" d="M59.903,62.656c-2.053,0-2.053,3.182,0,3.182C61.957,65.837,61.957,62.656,59.903,62.656z"/>
	</g>
	<g>
		<path fill="#00AEEB" d="M67.753,62.656c-2.054,0-2.054,3.182,0,3.182C69.805,65.837,69.805,62.656,67.753,62.656z"/>
	</g>
	<g>
		<path fill="#00AEEB" d="M71.684,74.347c-0.099,0-0.197-0.028-0.283-0.088c-8.062-5.548-15.045-0.078-15.113-0.022
			c-0.216,0.174-0.529,0.141-0.703-0.076c-0.173-0.216-0.14-0.529,0.076-0.701c0.075-0.062,7.64-5.988,16.307-0.023
			c0.229,0.156,0.285,0.468,0.129,0.695C71.998,74.272,71.841,74.347,71.684,74.347z"/>
	</g>
</g>
</svg>
