<?xml version="1.0" encoding="utf-8"?>
<!-- Generator: Adobe Illustrator 15.0.0, SVG Export Plug-In . SVG Version: 6.00 Build 0)  -->
<!DOCTYPE svg PUBLIC "-//W3C//DTD SVG 1.1//EN" "http://www.w3.org/Graphics/SVG/1.1/DTD/svg11.dtd">
<svg version="1.1" id="Layer_1" xmlns="http://www.w3.org/2000/svg" xmlns:xlink="http://www.w3.org/1999/xlink" x="0px" y="0px"
	 width="121px" height="121.6px" viewBox="0 0 121 121.6" enable-background="new 0 0 121 121.6" xml:space="preserve">
<g>
	<g>
		<path fill="#00AEEB" d="M88.816,84.613L88.816,84.613c-0.896,0-1.469-0.064-1.492-0.067L29.34,84.548
			c-3.94,0-6.793-1.011-8.481-3.003c-2.036-2.403-1.579-5.319-1.559-5.442c-0.008-8.818,9.12-9.008,11.572-8.886
			c-0.141-3.438,0.632-6.083,2.3-7.869c1.973-2.113,4.746-2.556,6.725-2.556c0.618,0,1.14,0.043,1.509,0.087
			c0.298-7.323,3.603-12.582,9.826-15.638c4.988-2.448,10.364-2.638,11.893-2.638c0.32,0,0.498,0.007,0.498,0.007
			c7.174,0.113,12.714,2.334,16.45,6.603c5.565,6.355,5.405,15.187,5.237,17.649c5.217-0.72,9.19,0.316,11.787,3.047
			c3.396,3.57,3.18,8.71,3.168,8.927c0,3.808-1.518,6.58-4.513,8.217C93.398,84.342,90.684,84.613,88.816,84.613z M30.059,68.198
			c-2.937,0-9.766,0.777-9.766,7.986c-0.011,0.105-0.402,2.683,1.338,4.726c1.489,1.75,4.084,2.639,7.709,2.639h58.042
			c0.062,0.004,0.603,0.063,1.437,0.063l0,0c1.432,0,4.173-0.188,6.457-1.436c2.647-1.448,3.99-3.926,3.99-7.364
			c0.004-0.072,0.202-4.964-2.898-8.22c-2.461-2.582-6.374-3.48-11.529-2.646l-0.652,0.104l0.076-0.656
			c0.014-0.104,1.151-10.571-4.945-17.527c-3.541-4.042-8.832-6.147-15.724-6.257c-0.021-0.001-0.181-0.007-0.468-0.007
			c-3.404,0-20.406,0.861-20.736,17.863l-0.012,0.599l-0.588-0.117c-0.007-0.002-0.787-0.155-1.892-0.155
			c-1.78,0-4.266,0.388-5.994,2.238c-1.562,1.673-2.235,4.262-2.001,7.69l0.041,0.598l-0.597-0.065
			C31.342,68.253,30.837,68.198,30.059,68.198z"/>
	</g>
</g>
</svg>
