<?xml version="1.0" encoding="utf-8"?>
<!-- Generator: Adobe Illustrator 15.0.0, SVG Export Plug-In . SVG Version: 6.00 Build 0)  -->
<!DOCTYPE svg PUBLIC "-//W3C//DTD SVG 1.1//EN" "http://www.w3.org/Graphics/SVG/1.1/DTD/svg11.dtd">
<svg version="1.1" id="Layer_1" xmlns="http://www.w3.org/2000/svg" xmlns:xlink="http://www.w3.org/1999/xlink" x="0px" y="0px"
	 width="121px" height="121.6px" viewBox="0 0 121 121.6" enable-background="new 0 0 121 121.6" xml:space="preserve">
<g>
	<g>
		<path fill="#00AEEB" d="M105.109,54.86C97.73,55.91,90.62,51.29,88.549,44.12c-2.061-7.17,1.5-14.87,8.301-17.91l0.949-0.43
			l-0.92-0.471c-4.939-2.55-10.609-3.109-15.97-1.569c-5.11,1.47-9.472,4.739-12.312,9.229c-2.33-0.72-4.92-1.1-7.79-1.15
			c-0.43-0.02-10.42-0.38-16.92,5.721c-3.3,3.1-5.08,7.319-5.3,12.55c-1.41-0.17-5.08-0.35-7.72,1.97
			c-2.021,1.771-2.97,4.59-2.82,8.36c-1.6-0.07-6.06-0.05-8.979,2.56c-1.721,1.541-2.59,3.69-2.59,6.33
			c-0.021,0.131-0.471,3.041,1.56,5.45c1.69,1.99,4.54,3,8.479,3H42.62c0.27,0,0.5-0.22,0.5-0.5s-0.23-0.5-0.5-0.5H26.519
			c-3.618,0-6.219-0.89-7.709-2.64c-1.739-2.04-1.34-4.62-1.329-4.722c0-2.43,0.76-4.33,2.25-5.67c3.189-2.85,8.739-2.27,8.8-2.27
			l0.59,0.069l-0.04-0.6c-0.25-3.74,0.57-6.47,2.45-8.11c2.89-2.54,7.399-1.67,7.439-1.659l0.59,0.119l0.011-0.6
			c0.099-5.21,1.779-9.39,5-12.41c6.189-5.81,16.099-5.45,16.209-5.45c2.9,0.051,5.521,0.45,7.841,1.2
			c0.02,0.01,0.04,0.01,0.061,0.021c3.17,1.029,5.779,2.71,7.819,5.04c6.101,6.96,4.96,17.42,4.95,17.52l-0.08,0.66l0.648-0.1
			c4.842-0.79,8.551-0.061,11.03,2.159c3.619,3.23,3.4,8.621,3.4,8.701c0,2.721-0.841,4.851-2.5,6.319
			c-3.433,3.06-9.271,2.431-9.38,2.42H68.55c-0.271,0-0.5,0.22-0.5,0.5s0.229,0.5,0.5,0.5h15.96c0.07,0,0.65,0.07,1.53,0.07
			c2.099,0,5.91-0.37,8.569-2.74c1.881-1.67,2.841-4.05,2.841-7.04c0.01-0.13,0.079-1.97-0.55-4.189
			c3.617-1.859,6.617-4.699,8.709-8.25l0.529-0.89L105.109,54.86z M96.58,62.89c-0.54-1.47-1.43-3.03-2.859-4.31
			C91.12,56.25,87.34,55.4,82.5,56.07c0.16-2.46,0.318-11.289-5.24-17.64c-2.029-2.32-4.6-4.04-7.68-5.13
			c2.71-4.17,6.811-7.22,11.609-8.6c4.779-1.381,9.819-1,14.319,1.05c-6.64,3.51-10.028,11.34-7.92,18.649
			c2.101,7.311,9.149,12.141,16.63,11.57C102.279,58.9,99.669,61.281,96.58,62.89z"/>
	</g>
	<g>
		<g>
			<g>
				<g>
					<path fill="#00AEEB" d="M67.501,71.342l-20.08,29.678c-0.557,0.836-0.696,0.903-0.743,0.903c-0.672,0-0.347-0.903-0.347-0.903
						l9.228-24.392h-8.138c-0.535,0-0.673-0.279-0.535-0.812l8.14-21.563c0.278-0.417,0.395-0.559,0.812-0.559h11.131
						c0.533,0,0.785,0.279,0.533,0.815l-8.671,16.02h8.276C67.639,70.531,67.753,70.925,67.501,71.342z"/>
				</g>
			</g>
		</g>
	</g>
</g>
</svg>
