<?xml version="1.0" encoding="utf-8"?>
<!-- Generator: Adobe Illustrator 15.0.0, SVG Export Plug-In . SVG Version: 6.00 Build 0)  -->
<!DOCTYPE svg PUBLIC "-//W3C//DTD SVG 1.1//EN" "http://www.w3.org/Graphics/SVG/1.1/DTD/svg11.dtd">
<svg version="1.1" id="Layer_1" xmlns="http://www.w3.org/2000/svg" xmlns:xlink="http://www.w3.org/1999/xlink" x="0px" y="0px"
	 width="121px" height="121.6px" viewBox="0 0 121 121.6" enable-background="new 0 0 121 121.6" xml:space="preserve">
<g>
	<g>
		<g>
			<path fill="#00AEEB" d="M89.361,74.54c-0.898,0-1.473-0.064-1.495-0.068l-57.987,0.004c-3.938,0-6.792-1.01-8.479-3.002
				c-2.036-2.403-1.58-5.317-1.559-5.44c-0.008-8.821,9.118-9.007,11.57-8.888c-0.141-3.438,0.633-6.082,2.301-7.868
				c1.974-2.112,4.747-2.557,6.727-2.557c0.618,0,1.141,0.043,1.509,0.087c0.297-7.322,3.602-12.581,9.825-15.636
				c4.985-2.448,10.361-2.638,11.892-2.638c0.321,0,0.499,0.008,0.499,0.008c7.174,0.113,12.714,2.335,16.451,6.602
				c5.564,6.357,5.406,15.187,5.238,17.65c5.223-0.72,9.19,0.316,11.783,3.045c3.396,3.571,3.182,8.71,3.17,8.927
				c0,3.808-1.518,6.578-4.51,8.215C93.941,74.271,91.227,74.54,89.361,74.54z M30.599,58.127c-2.936,0-9.765,0.778-9.765,7.988
				c-0.011,0.104-0.402,2.681,1.337,4.724c1.491,1.75,4.084,2.638,7.708,2.638h58.045c0.062,0.004,0.604,0.064,1.438,0.064
				c1.432,0,4.174-0.187,6.457-1.436c2.646-1.447,3.988-3.927,3.988-7.363c0.004-0.072,0.201-4.965-2.899-8.22
				c-2.46-2.583-6.37-3.481-11.525-2.646l-0.653,0.104l0.076-0.656c0.012-0.105,1.148-10.571-4.947-17.527
				c-3.541-4.042-8.832-6.147-15.724-6.256c-0.021-0.001-0.181-0.007-0.469-0.007c-3.404,0-20.404,0.86-20.734,17.861l-0.012,0.6
				l-0.587-0.118c-0.008-0.002-0.787-0.156-1.893-0.156c-1.781,0-4.267,0.388-5.996,2.239c-1.562,1.672-2.236,4.26-2.003,7.689
				l0.042,0.599l-0.596-0.067C31.881,58.181,31.377,58.127,30.599,58.127z"/>
		</g>
	</g>
	<g>
		<g>
			<g>
				<path fill="#00AEEB" d="M29.195,82.161c-0.199,0-0.4-0.061-0.576-0.185c-0.45-0.318-0.558-0.942-0.238-1.395l0.071-0.103
					c0.32-0.449,0.942-0.559,1.396-0.237c0.45,0.318,0.558,0.942,0.237,1.395l-0.071,0.103
					C29.818,82.015,29.51,82.161,29.195,82.161z"/>
			</g>
		</g>
		<g>
			<g>
				<path fill="#00AEEB" d="M24.921,88.198c-0.198,0-0.399-0.062-0.575-0.185c-0.451-0.318-0.559-0.943-0.239-1.395l0.087-0.123
					c0.316-0.45,0.94-0.558,1.394-0.239c0.451,0.319,0.559,0.942,0.239,1.394l-0.087,0.123
					C25.545,88.05,25.235,88.198,24.921,88.198z"/>
			</g>
		</g>
		<g>
			<g>
				<path fill="#00AEEB" d="M20.663,94.214c-0.197,0-0.397-0.059-0.571-0.18c-0.454-0.316-0.564-0.94-0.247-1.394l0.071-0.103
					c0.315-0.452,0.938-0.563,1.391-0.247c0.454,0.315,0.564,0.938,0.247,1.393l-0.07,0.103
					C21.289,94.066,20.979,94.214,20.663,94.214z"/>
			</g>
		</g>
	</g>
	<g>
		<g>
			<g>
				<path fill="#00AEEB" d="M43.485,82.161c-0.199,0-0.401-0.061-0.577-0.185c-0.45-0.318-0.558-0.942-0.239-1.395l0.073-0.103
					c0.32-0.449,0.94-0.559,1.395-0.237c0.45,0.318,0.558,0.942,0.238,1.395l-0.073,0.103
					C44.107,82.015,43.798,82.161,43.485,82.161z"/>
			</g>
		</g>
		<g>
			<g>
				<path fill="#00AEEB" d="M39.21,88.198c-0.2,0-0.4-0.062-0.576-0.185c-0.451-0.318-0.559-0.943-0.239-1.395l0.087-0.123
					c0.316-0.45,0.941-0.558,1.394-0.239c0.451,0.319,0.559,0.942,0.239,1.394l-0.087,0.123
					C39.833,88.05,39.523,88.198,39.21,88.198z"/>
			</g>
		</g>
		<g>
			<g>
				<path fill="#00AEEB" d="M34.947,94.214c-0.203,0-0.405-0.062-0.583-0.188c-0.448-0.321-0.551-0.946-0.229-1.396l0.073-0.104
					c0.321-0.447,0.945-0.551,1.396-0.229c0.449,0.322,0.552,0.946,0.229,1.395l-0.073,0.104
					C35.565,94.07,35.259,94.214,34.947,94.214z"/>
			</g>
		</g>
	</g>
	<g>
		<g>
			<g>
				<path fill="#00AEEB" d="M57.774,82.161c-0.199,0-0.401-0.061-0.577-0.185c-0.45-0.318-0.558-0.942-0.238-1.395l0.072-0.103
					c0.319-0.449,0.942-0.559,1.395-0.237c0.45,0.318,0.558,0.942,0.238,1.395l-0.072,0.103
					C58.396,82.015,58.088,82.161,57.774,82.161z"/>
			</g>
		</g>
		<g>
			<g>
				<path fill="#00AEEB" d="M53.496,88.198c-0.199,0-0.4-0.062-0.576-0.185c-0.451-0.318-0.559-0.943-0.239-1.395l0.087-0.123
					c0.317-0.45,0.941-0.558,1.393-0.239c0.451,0.319,0.56,0.942,0.239,1.394l-0.086,0.123C54.119,88.05,53.81,88.198,53.496,88.198
					z"/>
			</g>
		</g>
		<g>
			<g>
				<path fill="#00AEEB" d="M49.231,94.214c-0.198,0-0.4-0.061-0.576-0.184c-0.451-0.319-0.558-0.943-0.238-1.396l0.072-0.102
					c0.319-0.449,0.942-0.56,1.395-0.238c0.45,0.318,0.558,0.943,0.238,1.395l-0.072,0.103
					C49.854,94.068,49.545,94.214,49.231,94.214z"/>
			</g>
		</g>
	</g>
	<g>
		<g>
			<g>
				<path fill="#00AEEB" d="M72.059,82.161c-0.197,0-0.399-0.061-0.576-0.185c-0.449-0.318-0.558-0.942-0.237-1.395l0.071-0.103
					c0.32-0.449,0.942-0.559,1.396-0.237c0.449,0.318,0.558,0.942,0.237,1.395l-0.071,0.103
					C72.682,82.015,72.373,82.161,72.059,82.161z"/>
			</g>
		</g>
		<g>
			<g>
				<path fill="#00AEEB" d="M67.785,88.198c-0.2,0-0.4-0.062-0.576-0.185c-0.451-0.318-0.559-0.943-0.238-1.395l0.086-0.123
					c0.317-0.45,0.941-0.558,1.395-0.239c0.451,0.319,0.559,0.942,0.238,1.394l-0.086,0.123C68.408,88.05,68.1,88.198,67.785,88.198
					z"/>
			</g>
		</g>
		<g>
			<g>
				<path fill="#00AEEB" d="M63.525,94.214c-0.199,0-0.401-0.061-0.577-0.184c-0.45-0.319-0.558-0.943-0.238-1.396l0.072-0.102
					c0.319-0.449,0.942-0.56,1.395-0.238c0.45,0.318,0.558,0.943,0.238,1.395l-0.073,0.103
					C64.146,94.068,63.839,94.214,63.525,94.214z"/>
			</g>
		</g>
	</g>
	<g>
		<g>
			<g>
				<path fill="#00AEEB" d="M86.346,82.161c-0.199,0-0.402-0.061-0.578-0.185c-0.449-0.318-0.558-0.942-0.238-1.395l0.072-0.103
					c0.319-0.449,0.942-0.559,1.396-0.237c0.45,0.318,0.558,0.942,0.237,1.395l-0.071,0.103
					C86.966,82.015,86.658,82.161,86.346,82.161z"/>
			</g>
		</g>
		<g>
			<g>
				<path fill="#00AEEB" d="M82.07,88.198c-0.199,0-0.401-0.062-0.576-0.185c-0.451-0.318-0.561-0.943-0.239-1.395l0.087-0.123
					c0.317-0.45,0.941-0.558,1.395-0.239c0.451,0.319,0.558,0.942,0.238,1.394l-0.086,0.123
					C82.693,88.05,82.384,88.198,82.07,88.198z"/>
			</g>
		</g>
		<g>
			<g>
				<path fill="#00AEEB" d="M77.811,94.214c-0.199,0-0.401-0.061-0.578-0.184c-0.449-0.319-0.558-0.943-0.237-1.396l0.071-0.102
					c0.32-0.449,0.941-0.56,1.396-0.238c0.45,0.318,0.558,0.943,0.238,1.395l-0.072,0.103
					C78.432,94.068,78.123,94.214,77.811,94.214z"/>
			</g>
		</g>
	</g>
</g>
</svg>
