<?xml version="1.0" encoding="utf-8"?>
<!-- Generator: Adobe Illustrator 15.0.0, SVG Export Plug-In . SVG Version: 6.00 Build 0)  -->
<!DOCTYPE svg PUBLIC "-//W3C//DTD SVG 1.1//EN" "http://www.w3.org/Graphics/SVG/1.1/DTD/svg11.dtd">
<svg version="1.1" id="Layer_1" xmlns="http://www.w3.org/2000/svg" xmlns:xlink="http://www.w3.org/1999/xlink" x="0px" y="0px"
	 width="121px" height="121.6px" viewBox="0 0 121 121.6" enable-background="new 0 0 121 121.6" xml:space="preserve">
<g>
	<g>
		<path fill="#00AEEB" d="M76.363,39.255H63.607c-0.276,0-0.5-0.224-0.5-0.5s0.224-0.5,0.5-0.5h12.756c0.275,0,0.5,0.224,0.5,0.5
			S76.641,39.255,76.363,39.255z"/>
	</g>
	<g>
		<path fill="#00AEEB" d="M85.578,45.595H52.951c-0.276,0-0.5-0.224-0.5-0.5s0.224-0.5,0.5-0.5h32.627c0.275,0,0.5,0.224,0.5,0.5
			S85.854,45.595,85.578,45.595z"/>
	</g>
	<g>
		<path fill="#00AEEB" d="M89.297,51.934H49.319c-0.276,0-0.5-0.224-0.5-0.5c0-0.275,0.224-0.5,0.5-0.5h39.978
			c0.275,0,0.5,0.225,0.5,0.5C89.797,51.71,89.572,51.934,89.297,51.934z"/>
	</g>
	<g>
		<path fill="#00AEEB" d="M90.798,58.271H48.191c-0.276,0-0.5-0.224-0.5-0.5c0-0.275,0.224-0.5,0.5-0.5h42.606
			c0.276,0,0.5,0.225,0.5,0.5C91.297,58.047,91.074,58.271,90.798,58.271z"/>
	</g>
	<g>
		<path fill="#00AEEB" d="M97.801,64.609H31.284c-0.276,0-0.5-0.223-0.5-0.5c0-0.274,0.224-0.5,0.5-0.5h66.517
			c0.275,0,0.5,0.226,0.5,0.5C98.301,64.386,98.076,64.609,97.801,64.609z"/>
	</g>
	<g>
		<path fill="#00AEEB" d="M100.154,70.95H21.319c-0.276,0-0.5-0.226-0.5-0.5c0-0.277,0.224-0.5,0.5-0.5h78.835
			c0.277,0,0.5,0.223,0.5,0.5C100.654,70.726,100.432,70.95,100.154,70.95z"/>
	</g>
	<g>
		<path fill="#00AEEB" d="M101.219,77.288H19.23c-0.276,0-0.5-0.225-0.5-0.5c0-0.276,0.224-0.5,0.5-0.5h81.988
			c0.276,0,0.499,0.224,0.499,0.5C101.717,77.064,101.495,77.288,101.219,77.288z"/>
	</g>
	<g>
		<path fill="#00AEEB" d="M97.801,83.626H21.319c-0.276,0-0.5-0.224-0.5-0.5c0-0.275,0.224-0.5,0.5-0.5H97.8
			c0.275,0,0.5,0.225,0.5,0.5C98.301,83.404,98.076,83.626,97.801,83.626z"/>
	</g>
</g>
</svg>
