<?xml version="1.0" encoding="utf-8"?>
<!-- Generator: Adobe Illustrator 15.0.0, SVG Export Plug-In . SVG Version: 6.00 Build 0)  -->
<!DOCTYPE svg PUBLIC "-//W3C//DTD SVG 1.1//EN" "http://www.w3.org/Graphics/SVG/1.1/DTD/svg11.dtd">
<svg version="1.1" id="Layer_1" xmlns="http://www.w3.org/2000/svg" xmlns:xlink="http://www.w3.org/1999/xlink" x="0px" y="0px"
	 width="121px" height="121.6px" viewBox="0 0 121 121.6" enable-background="new 0 0 121 121.6" xml:space="preserve">
<g>
	<g>
		<path fill="#00AEEB" d="M104.51,49.66c-7.371,1.05-14.5-3.57-16.56-10.74c-2.07-7.18,1.5-14.88,8.3-17.92l0.95-0.42l-0.921-0.48
			c-4.949-2.55-10.619-3.109-15.971-1.569c-4.84,1.39-9.05,4.439-11.879,8.579c-2.529-0.88-5.412-1.359-8.611-1.399
			c0,0-0.18-0.01-0.5-0.01c-1.529,0-6.899,0.189-11.89,2.64c-6.22,3.06-9.52,8.32-9.819,15.64c-0.37-0.05-0.891-0.09-1.512-0.09
			c-1.979,0-4.759,0.44-6.729,2.561c-1.67,1.779-2.44,4.43-2.3,7.859c-2.45-0.109-11.58,0.07-11.57,8.891
			c-0.02,0.118-0.481,3.04,1.559,5.438c1.691,1.99,4.541,3,8.481,3h57.979c0.031,0,0.603,0.07,1.5,0.07
			c1.861,0,4.582-0.271,6.933-1.562c3-1.64,4.51-4.408,4.51-8.209c0.011-0.109,0.069-1.449-0.31-3.21
			c3.688-1.859,6.738-4.739,8.858-8.319l0.53-0.9L104.51,49.66z M95.46,61.91c0,3.439-1.34,5.92-3.989,7.359
			c-1.141,0.629-2.391,0.989-3.541,1.189s-2.188,0.25-2.91,0.25c-0.84,0-1.379-0.062-1.438-0.07H25.54c-3.62,0-6.221-0.88-7.71-2.63
			c-1.74-2.05-1.35-4.62-1.34-4.729c0-7.211,6.829-7.99,9.77-7.99c0.78,0,1.28,0.06,1.29,0.06l0.589,0.07l-0.04-0.601
			c-0.229-3.43,0.441-6.02,2-7.689c1.731-1.85,4.221-2.24,6-2.24c1.102,0,1.882,0.15,1.892,0.16l0.59,0.11l0.01-0.591
			C38.92,27.56,55.92,26.7,59.319,26.7c0.291,0,0.45,0.01,0.471,0.01c6.89,0.109,12.181,2.21,15.729,6.26
			c6.092,6.95,4.961,17.42,4.94,17.521l-0.069,0.659l0.649-0.109c5.149-0.83,9.069,0.069,11.53,2.649
			c1.42,1.49,2.148,3.33,2.52,4.88C95.529,60.42,95.471,61.87,95.46,61.91z M95.91,57.74c-0.439-1.54-1.221-3.271-2.61-4.73
			c-2.6-2.729-6.569-3.77-11.79-3.05c0.17-2.46,0.33-11.29-5.24-17.65c-1.858-2.12-4.148-3.729-6.879-4.84
			c2.699-3.85,6.659-6.67,11.199-7.979c4.77-1.37,9.82-0.99,14.311,1.06c-6.631,3.5-10.021,11.33-7.92,18.64
			c2.109,7.311,9.148,12.141,16.631,11.57C101.669,53.72,99.029,56.1,95.91,57.74z"/>
	</g>
	<g>
		<path fill="#00AEEB" d="M19.396,93.97c-0.985-0.572-1.326-1.823-0.759-2.811l0,0c0.579-0.988,1.837-1.322,2.823-0.754l0,0
			c0.984,0.568,1.318,1.831,0.747,2.813l0,0c-0.382,0.66-1.07,1.029-1.781,1.029l0,0C20.076,94.249,19.718,94.159,19.396,93.97z"/>
	</g>
	<g>
		<path fill="#00AEEB" d="M26.274,82.093c-0.983-0.571-1.324-1.834-0.756-2.814l0,0c0.577-0.988,1.833-1.321,2.823-0.756l0,0
			c0.98,0.568,1.317,1.834,0.746,2.814l0,0c-0.381,0.659-1.076,1.029-1.781,1.029l0,0C26.952,82.366,26.598,82.278,26.274,82.093z"
			/>
	</g>
	<g>
		<path fill="#00AEEB" d="M26.146,105.906c-0.98-0.574-1.318-1.832-0.75-2.819l0,0c0.572-0.979,1.834-1.314,2.816-0.747l0,0
			c0.979,0.572,1.318,1.83,0.748,2.809l0,0c-0.379,0.662-1.07,1.032-1.785,1.032l0,0C26.824,106.18,26.477,106.089,26.146,105.906z"
			/>
	</g>
	<g>
		<path fill="#00AEEB" d="M33.023,94.017c-0.98-0.565-1.325-1.828-0.753-2.812l0,0c0.566-0.988,1.831-1.318,2.819-0.752l0,0
			c0.981,0.567,1.318,1.831,0.75,2.812l0,0c-0.386,0.657-1.076,1.027-1.787,1.027l0,0C33.703,94.292,33.35,94.202,33.023,94.017z"/>
	</g>
	<g>
		<path fill="#00AEEB" d="M39.896,82.132c-0.984-0.564-1.318-1.832-0.75-2.809l0,0c0.571-0.988,1.826-1.324,2.816-0.759l0,0
			c0.98,0.568,1.32,1.834,0.746,2.818l0,0c-0.377,0.658-1.066,1.025-1.783,1.025l0,0C40.576,82.409,40.223,82.32,39.896,82.132z"/>
	</g>
	<g>
		<path fill="#00AEEB" d="M47.62,93.97c-0.983-0.572-1.319-1.823-0.749-2.811l0,0c0.571-0.988,1.828-1.322,2.807-0.754l0,0
			c0.988,0.568,1.326,1.831,0.756,2.813l0,0c-0.384,0.66-1.072,1.029-1.786,1.029l0,0C48.3,94.249,47.941,94.159,47.62,93.97z
			 M54.501,82.093c-0.983-0.571-1.329-1.834-0.757-2.814l0,0c0.566-0.988,1.83-1.321,2.814-0.756l0,0
			c0.986,0.568,1.321,1.834,0.756,2.814l0,0c-0.387,0.659-1.077,1.029-1.785,1.029l0,0C55.176,82.366,54.822,82.278,54.501,82.093z"
			/>
	</g>
	<g>
		<path fill="#00AEEB" d="M56.014,105.95c-0.99-0.564-1.334-1.822-0.77-2.812l0,0c0.561-0.988,1.818-1.33,2.808-0.768l0,0
			c0.987,0.562,1.333,1.82,0.771,2.806l0,0c-0.379,0.67-1.078,1.043-1.792,1.043l0,0C56.687,106.221,56.335,106.134,56.014,105.95z"
			/>
	</g>
	<g>
		<path fill="#00AEEB" d="M62.814,94.025c-0.986-0.562-1.33-1.826-0.771-2.817l0,0c0.56-0.979,1.822-1.33,2.81-0.763l0,0
			c0.992,0.562,1.336,1.822,0.771,2.806l0,0c-0.389,0.664-1.081,1.043-1.792,1.043l0,0C63.482,94.292,63.134,94.202,62.814,94.025z"
			/>
	</g>
	<g>
		<path fill="#00AEEB" d="M69.611,82.093c-0.986-0.562-1.33-1.817-0.766-2.809l0,0c0.559-0.988,1.825-1.328,2.812-0.769l0,0
			c0.987,0.562,1.336,1.82,0.769,2.81l0,0c-0.386,0.666-1.076,1.041-1.792,1.041l0,0C70.283,82.366,69.936,82.278,69.611,82.093z"/>
	</g>
	<g>
		<path fill="#00AEEB" d="M76.195,93.97c-0.986-0.572-1.32-1.823-0.756-2.811l0,0c0.569-0.988,1.834-1.322,2.815-0.754l0,0
			c0.983,0.568,1.322,1.831,0.754,2.813l0,0c-0.385,0.66-1.071,1.029-1.786,1.029l0,0C76.873,94.249,76.518,94.159,76.195,93.97z"/>
	</g>
	<g>
		<path fill="#00AEEB" d="M83.076,82.093c-0.984-0.571-1.32-1.834-0.754-2.814l0,0c0.574-0.988,1.828-1.321,2.818-0.756l0,0
			c0.979,0.568,1.315,1.834,0.744,2.814l0,0c-0.382,0.659-1.072,1.029-1.783,1.029l0,0C83.75,82.366,83.393,82.278,83.076,82.093z"
			/>
	</g>
</g>
</svg>
