<?xml version="1.0" encoding="utf-8"?>
<!-- Generator: Adobe Illustrator 15.0.0, SVG Export Plug-In . SVG Version: 6.00 Build 0)  -->
<!DOCTYPE svg PUBLIC "-//W3C//DTD SVG 1.1//EN" "http://www.w3.org/Graphics/SVG/1.1/DTD/svg11.dtd">
<svg version="1.1" id="Layer_1" xmlns="http://www.w3.org/2000/svg" xmlns:xlink="http://www.w3.org/1999/xlink" x="0px" y="0px"
	 width="121px" height="121.6px" viewBox="0 0 121 121.6" enable-background="new 0 0 121 121.6" xml:space="preserve">
<g>
	<g>
		<path fill="#00AEEB" d="M105.43,56.031c-7.38,1.039-14.5-3.57-16.56-10.74c-2.07-7.181,1.5-14.88,8.299-17.92l0.951-0.42
			l-0.931-0.48C92.25,23.92,86.58,23.36,81.23,24.9c-5.11,1.471-9.48,4.75-12.312,9.23c-2.33-0.71-4.95-1.1-7.8-1.14
			c-0.42-0.021-10.41-0.391-16.91,5.71c-3.3,3.1-5.09,7.319-5.3,12.55c-1.42-0.17-5.08-0.34-7.72,1.97
			c-2.021,1.78-2.971,4.59-2.82,8.37c-1.591-0.08-6.07-0.05-8.99,2.56c-1.711,1.531-2.59,3.69-2.58,6.33
			c-0.021,0.121-0.48,3.03,1.56,5.44c1.69,1.99,4.541,3,8.48,3H36c0.279,0,0.5-0.22,0.5-0.5s-0.221-0.5-0.5-0.5h-9.16
			c-3.62,0-6.22-0.89-7.711-2.64c-1.739-2.04-1.35-4.61-1.339-4.722c0-2.42,0.76-4.33,2.26-5.67c3.19-2.85,8.74-2.27,8.8-2.26
			l0.59,0.061L29.4,62.1c-0.249-3.741,0.57-6.479,2.44-8.121c2.891-2.54,7.41-1.67,7.45-1.66l0.59,0.12l0.01-0.6
			c0.101-5.21,1.779-9.38,5-12.4c6.19-5.819,16.091-5.46,16.2-5.449c2.91,0.039,5.57,0.449,7.891,1.21
			c14.681,4.76,12.799,22.39,12.779,22.569l-0.068,0.66l0.648-0.11c4.84-0.779,8.551-0.05,11.03,2.171
			c1.438,1.279,2.271,2.908,2.75,4.398c0.009,0.041,0.019,0.07,0.04,0.11c0.689,2.22,0.609,4.14,0.609,4.189
			c0,2.709-0.84,4.84-2.5,6.319c-3.431,3.05-9.271,2.421-9.391,2.41h-6.05c-0.271,0-0.5,0.22-0.5,0.5s0.229,0.5,0.5,0.5h6
			c0.069,0.011,0.649,0.069,1.528,0.069c2.102,0,5.91-0.369,8.57-2.729c1.881-1.68,2.84-4.06,2.84-7.05
			c0.01-0.13,0.08-1.971-0.55-4.189c3.62-1.859,6.63-4.711,8.71-8.241l0.53-0.899L105.43,56.031z M96.9,64.06
			c-0.541-1.479-1.42-3.028-2.86-4.31c-2.601-2.34-6.39-3.181-11.229-2.51C83,53.96,83.1,39.18,69.9,34.46
			c2.709-4.17,6.81-7.22,11.608-8.601c4.771-1.369,9.82-1,14.31,1.061C89.18,30.43,85.8,38.25,87.9,45.56
			c2.108,7.32,9.148,12.141,16.629,11.57C102.6,60.06,100,62.441,96.9,64.06z"/>
	</g>
</g>
<g>
	<g>
		<g>
			<g>
				<path fill="#00AEEB" d="M74.686,78.484c0,0.586-0.479,1.089-1.082,1.089h-2.994l1.385,1.385c0.436,0.41,0.436,1.104,0,1.543
					c-0.213,0.19-0.473,0.301-0.754,0.301s-0.563-0.109-0.78-0.301l-2.928-2.928H59.9l5.534,5.524l4.008-0.086
					c0.69,0,1.082,0.455,1.104,1.042c0.021,0.605-0.453,1.104-1.062,1.125l-1.926,0.042l2.036,2.039
					c0.413,0.436,0.413,1.131,0,1.541c-0.217,0.215-0.499,0.322-0.78,0.322c-0.258,0-0.541-0.107-0.761-0.322l-2.122-2.127v1.973
					c0,0.607-0.479,1.086-1.088,1.086c-0.582,0-1.082-0.479-1.082-1.086v-4.139l-5.419-5.418v8.193l2.925,2.795
					c0.436,0.409,0.436,1.104,0.026,1.541c-0.22,0.215-0.502,0.322-0.786,0.322c-0.26,0-0.541-0.087-0.733-0.303l-1.432-1.365v2.559
					c0,0.584-0.478,1.086-1.083,1.086c-0.589,0-1.087-0.502-1.087-1.086v-2.623l-1.386,1.386c-0.41,0.412-1.107,0.412-1.537,0
					c-0.416-0.433-0.416-1.106,0-1.537l2.923-2.907v-8.042l-5.789,5.786l0.088,4.033c0.022,0.587-0.456,1.085-1.062,1.107h-0.023
					c-0.587,0-1.061-0.479-1.084-1.062l-0.041-1.951L46.48,90.8c-0.216,0.215-0.499,0.322-0.777,0.322
					c-0.285,0-0.547-0.107-0.756-0.322c-0.438-0.41-0.438-1.105,0-1.541l1.836-1.84h-1.97c-0.585,0-1.084-0.502-1.084-1.088
					c0-0.604,0.499-1.082,1.084-1.082h4.141l5.68-5.679H46.44l-2.775,2.902c-0.217,0.217-0.5,0.326-0.781,0.326
					c-0.283,0-0.541-0.088-0.756-0.301c-0.434-0.416-0.434-1.088-0.021-1.522l1.342-1.405h-2.535c-0.588,0-1.088-0.502-1.088-1.088
					c0-0.604,0.5-1.083,1.088-1.083h2.642l-1.407-1.409c-0.411-0.411-0.411-1.106,0-1.518c0.436-0.432,1.105-0.432,1.54,0
					l2.925,2.927h8.04l-5.806-5.812l-4.032,0.088c0,0,0,0-0.025,0c-0.58,0-1.059-0.456-1.082-1.061c0-0.587,0.478-1.084,1.064-1.107
					l1.947-0.043l-1.771-1.777c-0.438-0.436-0.438-1.104,0-1.539c0.405-0.412,1.1-0.412,1.533,0l1.844,1.843v-1.947
					c0-0.611,0.499-1.086,1.084-1.086c0.605,0,1.084,0.475,1.084,1.086v4.117l5.679,5.679v-7.804l-2.906-2.775
					c-0.433-0.411-0.433-1.104-0.017-1.539c0.412-0.434,1.082-0.454,1.513-0.021l1.41,1.343v-2.906c0-0.604,0.498-1.082,1.087-1.082
					c0.605,0,1.083,0.478,1.083,1.082v3.016l1.407-1.407c0.412-0.437,1.106-0.437,1.518,0c0.436,0.431,0.436,1.104,0,1.538
					l-2.925,2.927v7.649l5.526-5.526l-0.086-4.032c0-0.585,0.479-1.085,1.061-1.104c0.65,0.019,1.106,0.452,1.106,1.059l0.048,1.954
					l2.057-2.062c0.436-0.411,1.106-0.411,1.541,0c0.412,0.435,0.412,1.104,0,1.539l-2.127,2.124h1.977
					c0.604,0,1.082,0.478,1.082,1.085c0,0.585-0.479,1.084-1.082,1.084h-4.143l-5.419,5.419h7.802l2.793-2.927
					c0.416-0.411,1.111-0.432,1.541-0.02c0.438,0.412,0.438,1.102,0.023,1.536L70.702,77.4h2.901
					C74.207,77.401,74.686,77.878,74.686,78.484z"/>
			</g>
		</g>
	</g>
</g>
</svg>
