<?xml version="1.0" encoding="utf-8"?>
<!-- Generator: Adobe Illustrator 15.0.0, SVG Export Plug-In . SVG Version: 6.00 Build 0)  -->
<!DOCTYPE svg PUBLIC "-//W3C//DTD SVG 1.1//EN" "http://www.w3.org/Graphics/SVG/1.1/DTD/svg11.dtd">
<svg version="1.1" id="Layer_1" xmlns="http://www.w3.org/2000/svg" xmlns:xlink="http://www.w3.org/1999/xlink" x="0px" y="0px"
	 width="121px" height="121.6px" viewBox="0 0 121 121.6" enable-background="new 0 0 121 121.6" xml:space="preserve">
<g>
	<g>
		<g>
			<path fill="#00AEEB" d="M89.646,74.358L89.646,74.358c-0.898,0-1.472-0.064-1.496-0.067l-57.984,0.003
				c-3.94,0-6.793-1.01-8.481-3.002c-2.037-2.404-1.579-5.319-1.558-5.442c-0.008-8.818,9.112-9.004,11.572-8.885
				c-0.14-3.438,0.632-6.084,2.3-7.869c1.973-2.112,4.746-2.556,6.725-2.556c0.618,0,1.141,0.043,1.509,0.088
				c0.297-7.323,3.602-12.582,9.826-15.637c4.986-2.447,10.363-2.639,11.891-2.639c0.321,0,0.5,0.008,0.5,0.008
				c7.175,0.113,12.714,2.334,16.45,6.603c5.565,6.355,5.406,15.187,5.238,17.649c5.215-0.721,9.189,0.316,11.785,3.046
				c3.396,3.571,3.18,8.712,3.168,8.929c0.001,3.805-1.517,6.578-4.509,8.215C94.227,74.087,91.51,74.358,89.646,74.358z
				 M30.884,57.944c-2.936,0-9.765,0.778-9.765,7.986c-0.011,0.106-0.402,2.681,1.337,4.724c1.49,1.753,4.085,2.64,7.709,2.64
				h58.043c0.062,0.004,0.603,0.064,1.437,0.064h0.002c1.43,0,4.172-0.187,6.455-1.436c2.646-1.448,3.989-3.925,3.989-7.362
				c0.002-0.074,0.201-4.965-2.899-8.22c-2.461-2.583-6.373-3.481-11.527-2.646l-0.654,0.105l0.077-0.657
				c0.013-0.104,1.149-10.571-4.944-17.526c-3.543-4.042-8.832-6.147-15.725-6.257c-0.021-0.001-0.182-0.007-0.47-0.007
				c-3.403,0-20.405,0.861-20.734,17.862l-0.011,0.599l-0.587-0.118c-0.008-0.002-0.787-0.155-1.893-0.155
				c-1.78,0-4.266,0.388-5.994,2.238c-1.563,1.674-2.237,4.262-2.002,7.692l0.041,0.598L32.172,58
				C32.168,57.999,31.664,57.944,30.884,57.944z"/>
		</g>
	</g>
	<g>
		<g>
			<g>
				<path fill="#00AEEB" d="M29.483,81.978c-0.199,0-0.4-0.059-0.574-0.182c-0.451-0.318-0.561-0.941-0.242-1.395l0.071-0.103
					c0.318-0.451,0.942-0.561,1.394-0.242c0.451,0.318,0.56,0.941,0.243,1.394l-0.072,0.103
					C30.107,81.829,29.797,81.978,29.483,81.978z"/>
			</g>
		</g>
		<g>
			<g>
				<path fill="#00AEEB" d="M25.207,88.016c-0.2,0-0.402-0.06-0.578-0.185c-0.45-0.32-0.556-0.944-0.237-1.396l0.088-0.123
					c0.319-0.449,0.943-0.556,1.395-0.235c0.449,0.319,0.556,0.943,0.235,1.395l-0.087,0.123
					C25.829,87.869,25.521,88.016,25.207,88.016z"/>
			</g>
		</g>
		<g>
			<g>
				<path fill="#00AEEB" d="M20.949,94.032c-0.199,0-0.401-0.06-0.577-0.185c-0.45-0.317-0.557-0.942-0.237-1.395l0.072-0.103
					c0.319-0.45,0.942-0.558,1.395-0.237c0.45,0.318,0.557,0.942,0.238,1.395l-0.072,0.102
					C21.571,93.886,21.262,94.032,20.949,94.032z"/>
			</g>
		</g>
	</g>
	<g>
		<g>
			<path fill="#00AEEB" d="M35.235,93.532c-0.099,0-0.201-0.029-0.288-0.093c-0.226-0.158-0.278-0.471-0.12-0.696l8.609-12.156
				c0.159-0.227,0.471-0.279,0.697-0.119c0.226,0.16,0.279,0.472,0.119,0.697l-8.608,12.155
				C35.546,93.46,35.392,93.532,35.235,93.532z"/>
		</g>
	</g>
	<g>
		<g>
			<g>
				<path fill="#00AEEB" d="M58.061,81.978c-0.199,0-0.401-0.059-0.577-0.184c-0.45-0.319-0.558-0.943-0.239-1.396l0.073-0.102
					c0.319-0.45,0.942-0.559,1.395-0.238c0.45,0.318,0.558,0.943,0.238,1.396l-0.073,0.102
					C58.683,81.831,58.374,81.978,58.061,81.978z"/>
			</g>
		</g>
		<g>
			<g>
				<path fill="#00AEEB" d="M53.782,88.016c-0.199,0-0.4-0.06-0.576-0.183c-0.451-0.319-0.559-0.943-0.24-1.396l0.088-0.123
					c0.318-0.45,0.94-0.558,1.394-0.239c0.451,0.318,0.559,0.942,0.239,1.395L54.6,87.593
					C54.405,87.868,54.096,88.016,53.782,88.016z"/>
			</g>
		</g>
		<g>
			<g>
				<path fill="#00AEEB" d="M49.518,94.032c-0.202,0-0.406-0.062-0.583-0.188c-0.448-0.322-0.551-0.946-0.229-1.395l0.073-0.104
					c0.322-0.448,0.946-0.552,1.395-0.229c0.45,0.321,0.553,0.946,0.229,1.396l-0.072,0.104
					C50.136,93.888,49.828,94.032,49.518,94.032z"/>
			</g>
		</g>
	</g>
	<g>
		<g>
			<path fill="#00AEEB" d="M63.812,93.532c-0.102,0-0.201-0.029-0.289-0.093c-0.227-0.158-0.279-0.471-0.121-0.696l8.606-12.156
				c0.161-0.228,0.474-0.277,0.697-0.119c0.226,0.16,0.278,0.472,0.119,0.697l-8.604,12.155
				C64.123,93.46,63.969,93.532,63.812,93.532z"/>
		</g>
	</g>
	<g>
		<g>
			<g>
				<path fill="#00AEEB" d="M86.628,81.978c-0.202,0-0.405-0.061-0.583-0.188c-0.447-0.322-0.551-0.947-0.229-1.396l0.074-0.103
					c0.32-0.448,0.944-0.551,1.395-0.229c0.449,0.322,0.553,0.946,0.23,1.396l-0.074,0.103
					C87.246,81.833,86.939,81.978,86.628,81.978z"/>
			</g>
		</g>
		<g>
			<g>
				<path fill="#00AEEB" d="M82.355,88.016c-0.199,0-0.4-0.06-0.576-0.183c-0.451-0.319-0.559-0.943-0.239-1.396l0.087-0.123
					c0.318-0.45,0.939-0.558,1.395-0.239c0.451,0.318,0.559,0.942,0.238,1.395l-0.087,0.123
					C82.979,87.868,82.669,88.016,82.355,88.016z"/>
			</g>
		</g>
		<g>
			<g>
				<path fill="#00AEEB" d="M78.098,94.032c-0.197,0-0.397-0.06-0.572-0.181c-0.452-0.315-0.563-0.938-0.246-1.393l0.07-0.103
					c0.315-0.453,0.939-0.563,1.392-0.248c0.454,0.316,0.563,0.94,0.247,1.394l-0.07,0.103
					C78.723,93.884,78.412,94.032,78.098,94.032z"/>
			</g>
		</g>
	</g>
</g>
</svg>
