<?xml version="1.0" encoding="utf-8"?>
<!-- Generator: Adobe Illustrator 15.0.0, SVG Export Plug-In . SVG Version: 6.00 Build 0)  -->
<!DOCTYPE svg PUBLIC "-//W3C//DTD SVG 1.1//EN" "http://www.w3.org/Graphics/SVG/1.1/DTD/svg11.dtd">
<svg version="1.1" id="Layer_1" xmlns="http://www.w3.org/2000/svg" xmlns:xlink="http://www.w3.org/1999/xlink" x="0px" y="0px"
	 width="121px" height="121.6px" viewBox="0 0 121 121.6" enable-background="new 0 0 121 121.6" xml:space="preserve">
<g>
	<g>
		<g>
			<path fill="#00AEEB" d="M103.029,67.101L102,67.24c-7.38,1.05-14.5-3.57-16.57-10.74c-2.06-7.17,1.512-14.87,8.312-17.91
				l0.938-0.42l-0.92-0.48C88.82,35.13,83.15,34.58,77.8,36.12c-3.59,1.029-6.85,2.97-9.45,5.62c-1.67-0.33-3.47-0.511-5.369-0.54
				c0,0-0.181,0-0.5,0c-1.529,0-6.91,0.189-11.899,2.63c-6.22,3.06-9.521,8.319-9.82,15.64c-0.37-0.05-0.89-0.09-1.51-0.09
				c-1.98,0-4.75,0.439-6.721,2.561c-1.669,1.779-2.44,4.431-2.299,7.869c-2.45-0.119-11.581,0.062-11.57,8.881
				c-0.02,0.119-0.48,3.039,1.55,5.439c1.69,2,4.55,3.01,8.49,3.01l57.98-0.01c0.029,0.01,0.601,0.07,1.5,0.07
				c1.859,0,4.58-0.271,6.93-1.562c2.988-1.63,4.511-4.41,4.511-8.209c0.009-0.141,0.101-2.341-0.75-4.841
				c1.41-1.36,2.63-2.909,3.63-4.6L103.029,67.101z M78.07,37.08c4.779-1.38,9.83-1,14.318,1.05c-6.64,3.51-10.02,11.34-7.92,18.65
				c1.061,3.659,3.35,6.689,6.311,8.74c-1.789-0.359-3.829-0.371-6.11-0.061C84.83,62.99,85,54.16,79.43,47.81
				C76.92,44.95,73.6,43,69.52,42C71.92,39.7,74.859,38.01,78.07,37.08z M98.62,77.4c0,3.44-1.341,5.92-3.991,7.371
				C93.49,85.4,92.24,85.75,91.09,85.95c-1.148,0.21-2.189,0.25-2.91,0.25c-0.84,0-1.38-0.062-1.438-0.062H28.7
				c-3.63,0-6.22-0.89-7.709-2.64c-1.74-2.05-1.351-4.62-1.341-4.729c0-7.211,6.831-7.979,9.761-7.979c0.779,0,1.29,0.05,1.29,0.05
				l0.6,0.07l-0.04-0.602c-0.24-3.43,0.44-6.02,2-7.688c1.73-1.851,4.21-2.24,5.99-2.24c1.11,0,1.89,0.16,1.89,0.16l0.59,0.109
				l0.01-0.59c0.33-17,17.331-17.859,20.741-17.859h0.47c6.89,0.109,12.179,2.22,15.719,6.26c6.101,6.96,4.96,17.42,4.951,17.53
				l-0.08,0.648l0.649-0.1c5.16-0.84,9.07,0.061,11.529,2.641c1.012,1.061,1.66,2.279,2.1,3.459
				C98.71,75.101,98.62,77.351,98.62,77.4z M98.471,71.58c-0.461-1.05-1.111-2.12-2.021-3.08c-0.229-0.24-0.479-0.479-0.729-0.69
				c1.719,0.49,3.539,0.682,5.379,0.541C100.33,69.521,99.45,70.601,98.471,71.58z"/>
		</g>
	</g>
</g>
</svg>
