<?xml version="1.0" encoding="utf-8"?>
<!-- Generator: Adobe Illustrator 15.0.0, SVG Export Plug-In . SVG Version: 6.00 Build 0)  -->
<!DOCTYPE svg PUBLIC "-//W3C//DTD SVG 1.1//EN" "http://www.w3.org/Graphics/SVG/1.1/DTD/svg11.dtd">
<svg version="1.1" id="Layer_1" xmlns="http://www.w3.org/2000/svg" xmlns:xlink="http://www.w3.org/1999/xlink" x="0px" y="0px"
	 width="121px" height="121.6px" viewBox="0 0 121 121.6" enable-background="new 0 0 121 121.6" xml:space="preserve">
<g>
	<g>
		<g>
			<path fill="#00AEEB" d="M59.67,32.177c-0.276,0-0.5-0.224-0.5-0.5V21.383c0-0.276,0.224-0.5,0.5-0.5s0.5,0.224,0.5,0.5v10.295
				C60.17,31.954,59.947,32.177,59.67,32.177z"/>
		</g>
		<g>
			<path fill="#00AEEB" d="M59.67,101.772c-0.276,0-0.5-0.224-0.5-0.5V90.977c0-0.275,0.224-0.5,0.5-0.5s0.5,0.225,0.5,0.5v10.295
				C60.17,101.548,59.947,101.772,59.67,101.772z"/>
		</g>
	</g>
	<g>
		<path fill="#00AEEB" d="M59.67,76.818c-8.759,0-15.886-7.125-15.886-15.884S50.91,45.05,59.67,45.05s15.885,7.125,15.885,15.884
			C75.557,69.693,68.43,76.818,59.67,76.818z M59.67,46.049c-8.208,0-14.886,6.677-14.886,14.884s6.678,14.884,14.886,14.884
			c8.207,0,14.885-6.678,14.885-14.884C74.557,52.726,67.877,46.049,59.67,46.049z"/>
	</g>
	<g>
		<g>
			<path fill="#00AEEB" d="M38.705,40.862c-0.128,0-0.256-0.049-0.354-0.146l-7.279-7.28c-0.195-0.194-0.195-0.512,0-0.707
				c0.195-0.194,0.511-0.194,0.707,0l7.279,7.28c0.195,0.195,0.195,0.512,0,0.707C38.96,40.813,38.833,40.862,38.705,40.862z"/>
		</g>
		<g>
			<path fill="#00AEEB" d="M87.912,90.073c-0.129,0-0.256-0.05-0.354-0.146l-7.277-7.278c-0.195-0.195-0.195-0.513,0-0.707
				c0.193-0.195,0.512-0.195,0.707,0l7.275,7.278c0.196,0.195,0.196,0.512,0,0.707C88.167,90.023,88.04,90.073,87.912,90.073z"/>
		</g>
	</g>
	<g>
		<g>
			<path fill="#00AEEB" d="M80.635,40.862c-0.129,0-0.256-0.049-0.354-0.146c-0.195-0.195-0.195-0.512,0-0.707l7.277-7.28
				c0.194-0.194,0.51-0.194,0.705,0c0.196,0.195,0.196,0.513,0,0.707l-7.275,7.28C80.891,40.813,80.762,40.862,80.635,40.862z"/>
		</g>
		<g>
			<path fill="#00AEEB" d="M31.425,90.073c-0.128,0-0.256-0.05-0.354-0.146c-0.195-0.195-0.195-0.512,0-0.707l7.279-7.278
				c0.195-0.195,0.511-0.195,0.707,0c0.195,0.194,0.195,0.512,0,0.707l-7.279,7.278C31.682,90.023,31.553,90.073,31.425,90.073z"/>
		</g>
	</g>
	<g>
		<g>
			<path fill="#00AEEB" d="M99.613,61.827H89.32c-0.275,0-0.5-0.225-0.5-0.5c0-0.277,0.225-0.5,0.5-0.5h10.293
				c0.275,0,0.5,0.224,0.5,0.5S99.889,61.827,99.613,61.827z"/>
		</g>
		<g>
			<path fill="#00AEEB" d="M30.019,61.827H19.727c-0.277,0-0.5-0.225-0.5-0.5c0-0.277,0.223-0.5,0.5-0.5h10.292
				c0.277,0,0.5,0.224,0.5,0.5S30.296,61.827,30.019,61.827z"/>
		</g>
	</g>
</g>
</svg>
