<?xml version="1.0" encoding="utf-8"?>
<!-- Generator: Adobe Illustrator 15.0.0, SVG Export Plug-In . SVG Version: 6.00 Build 0)  -->
<!DOCTYPE svg PUBLIC "-//W3C//DTD SVG 1.1//EN" "http://www.w3.org/Graphics/SVG/1.1/DTD/svg11.dtd">
<svg version="1.1" id="Layer_1" xmlns="http://www.w3.org/2000/svg" xmlns:xlink="http://www.w3.org/1999/xlink" x="0px" y="0px"
	 width="121px" height="121.6px" viewBox="0 0 121 121.6" enable-background="new 0 0 121 121.6" xml:space="preserve">
<g>
	<g>
		<g>
			<path fill="#00AEEB" d="M87.748,74.406c-0.877,0-1.456-0.063-1.532-0.072l-5.989,0.003c-0.277,0-0.5-0.223-0.5-0.5
				c0-0.275,0.223-0.5,0.5-0.5h6.049c0.115,0.011,5.959,0.643,9.387-2.414c1.658-1.479,2.499-3.604,2.499-6.318
				c0.004-0.079,0.221-5.469-3.397-8.701c-2.484-2.221-6.197-2.948-11.033-2.164l-0.651,0.104l0.075-0.657
				c0.021-0.178,1.896-17.806-12.778-22.574c-2.326-0.756-4.979-1.162-7.892-1.208c-0.114-0.006-10.013-0.362-16.202,5.449
				c-3.216,3.021-4.899,7.196-5.001,12.406l-0.011,0.599l-0.59-0.118c-0.044-0.01-4.554-0.882-7.446,1.654
				c-1.876,1.646-2.697,4.377-2.441,8.117l0.04,0.598l-0.595-0.065c-0.054-0.006-5.609-0.588-8.799,2.267
				c-1.495,1.337-2.253,3.243-2.253,5.665c-0.01,0.106-0.403,2.681,1.336,4.724c1.49,1.752,4.084,2.639,7.712,2.639h9.158
				c0.277,0,0.5,0.225,0.5,0.5c0,0.277-0.223,0.5-0.5,0.5h-9.158c-3.942,0-6.796-1.01-8.484-3.002
				c-2.036-2.404-1.578-5.319-1.557-5.441c-0.007-2.639,0.864-4.797,2.583-6.332c2.917-2.605,7.388-2.637,8.988-2.557
				c-0.154-3.78,0.792-6.593,2.817-8.365c2.643-2.312,6.305-2.141,7.717-1.969c0.217-5.229,1.999-9.45,5.303-12.551
				c6.503-6.103,16.493-5.734,16.915-5.716c2.994,0.047,5.748,0.47,8.168,1.256c13.81,4.485,13.709,19.67,13.515,22.997
				c4.852-0.673,8.631,0.17,11.239,2.506c3.974,3.558,3.734,9.227,3.725,9.466c0,2.989-0.954,5.367-2.838,7.044
				C93.665,74.039,89.852,74.406,87.748,74.406z"/>
		</g>
	</g>
	<g>
		<g>
			<g>
				<g>
					<path fill="#00AEEB" d="M76.077,73.899c0,0.587-0.479,1.088-1.084,1.088h-2.991l1.383,1.386c0.438,0.411,0.438,1.104,0,1.543
						c-0.213,0.191-0.472,0.303-0.753,0.303c-0.282,0-0.563-0.11-0.78-0.303l-2.929-2.929h-7.631l5.532,5.526l4.01-0.087
						c0.689,0,1.082,0.457,1.104,1.043c0.021,0.605-0.455,1.104-1.062,1.125l-1.927,0.041l2.036,2.039
						c0.414,0.436,0.414,1.131,0,1.541c-0.217,0.215-0.498,0.323-0.78,0.323c-0.259,0-0.542-0.108-0.761-0.323l-2.121-2.125v1.971
						c0,0.608-0.479,1.086-1.088,1.086c-0.584,0-1.084-0.478-1.084-1.086v-4.139l-5.418-5.418v8.194l2.925,2.794
						c0.435,0.41,0.435,1.104,0.026,1.541c-0.22,0.216-0.502,0.323-0.785,0.323c-0.262,0-0.541-0.088-0.734-0.303l-1.432-1.365
						v2.558c0,0.585-0.477,1.086-1.083,1.086c-0.589,0-1.087-0.501-1.087-1.086v-2.623l-1.385,1.387
						c-0.411,0.412-1.107,0.412-1.537,0c-0.416-0.433-0.416-1.106,0-1.537l2.922-2.908v-8.041l-5.789,5.785l0.088,4.033
						c0.022,0.588-0.456,1.086-1.062,1.107h-0.023c-0.587,0-1.061-0.479-1.084-1.062l-0.041-1.951l-1.779,1.777
						c-0.216,0.215-0.499,0.323-0.777,0.323c-0.285,0-0.546-0.108-0.755-0.323c-0.438-0.41-0.438-1.105,0-1.541l1.836-1.84h-1.97
						c-0.585,0-1.084-0.501-1.084-1.087c0-0.604,0.499-1.082,1.084-1.082h4.141l5.68-5.68h-8.194l-2.775,2.903
						c-0.217,0.217-0.5,0.327-0.781,0.327c-0.283,0-0.541-0.09-0.756-0.303c-0.433-0.415-0.433-1.087-0.021-1.521l1.342-1.406
						h-2.535c-0.588,0-1.088-0.501-1.088-1.088c0-0.604,0.5-1.082,1.088-1.082h2.642l-1.407-1.409c-0.411-0.411-0.411-1.106,0-1.519
						c0.435-0.432,1.105-0.432,1.54,0l2.925,2.928h8.041l-5.806-5.812l-4.033,0.088c0,0,0,0-0.025,0
						c-0.581,0-1.059-0.455-1.083-1.061c0-0.587,0.478-1.084,1.065-1.107l1.947-0.043l-1.771-1.777
						c-0.438-0.435-0.438-1.104,0-1.538c0.405-0.412,1.099-0.412,1.533,0l1.844,1.842v-1.947c0-0.611,0.499-1.085,1.084-1.085
						c0.605,0,1.084,0.474,1.084,1.085v4.117l5.678,5.68v-7.805l-2.906-2.775c-0.432-0.41-0.432-1.104-0.016-1.539
						c0.412-0.433,1.082-0.453,1.513-0.02l1.41,1.342v-2.906c0-0.604,0.499-1.082,1.087-1.082c0.605,0,1.083,0.478,1.083,1.082
						v3.017l1.409-1.408c0.412-0.436,1.104-0.436,1.517,0c0.435,0.432,0.435,1.104,0,1.539l-2.925,2.926v7.65l5.526-5.526
						l-0.086-4.032c0-0.584,0.479-1.086,1.062-1.104c0.65,0.018,1.104,0.452,1.104,1.059l0.05,1.953l2.055-2.061
						c0.436-0.412,1.107-0.412,1.541,0c0.414,0.434,0.414,1.104,0,1.538l-2.125,2.125h1.976c0.604,0,1.082,0.478,1.082,1.084
						c0,0.586-0.479,1.085-1.082,1.085h-4.144l-5.418,5.419h7.801l2.794-2.928c0.416-0.41,1.11-0.432,1.541-0.019
						c0.437,0.411,0.437,1.101,0.024,1.536l-1.342,1.409h2.901C75.598,72.817,76.077,73.293,76.077,73.899z"/>
				</g>
			</g>
		</g>
	</g>
</g>
</svg>
