<?xml version="1.0" encoding="utf-8"?>
<!-- Generator: Adobe Illustrator 15.0.0, SVG Export Plug-In . SVG Version: 6.00 Build 0)  -->
<!DOCTYPE svg PUBLIC "-//W3C//DTD SVG 1.1//EN" "http://www.w3.org/Graphics/SVG/1.1/DTD/svg11.dtd">
<svg version="1.1" id="Layer_1" xmlns="http://www.w3.org/2000/svg" xmlns:xlink="http://www.w3.org/1999/xlink" x="0px" y="0px"
	 width="121px" height="121.6px" viewBox="0 0 121 121.6" enable-background="new 0 0 121 121.6" xml:space="preserve">
<g>
	<g>
		<path fill="#00AEEB" d="M89.863,67.439L89.863,67.439c-0.896,0-1.469-0.063-1.492-0.067l-57.985,0.004
			c-3.939,0-6.792-1.011-8.479-3.003c-2.036-2.403-1.578-5.321-1.558-5.443c-0.007-8.816,9.12-8.999,11.57-8.883
			c-0.141-3.438,0.631-6.083,2.299-7.868c1.974-2.113,4.747-2.557,6.726-2.557c0.619,0,1.141,0.044,1.508,0.087
			c0.298-7.323,3.603-12.581,9.829-15.638c4.986-2.446,10.362-2.637,11.893-2.637c0.319,0,0.496,0.008,0.496,0.008
			c7.176,0.113,12.713,2.334,16.45,6.603c5.565,6.354,5.407,15.186,5.239,17.649c5.216-0.722,9.189,0.316,11.785,3.046
			c3.396,3.57,3.181,8.708,3.168,8.925c0.002,3.807-1.518,6.579-4.512,8.216C94.445,67.169,91.729,67.439,89.863,67.439z
			 M31.105,51.026c-2.937,0-9.764,0.778-9.764,7.984c-0.011,0.106-0.403,2.683,1.336,4.726c1.49,1.75,4.084,2.64,7.708,2.64h58.043
			c0.062,0.004,0.602,0.063,1.436,0.063l0,0c1.433,0,4.173-0.188,6.457-1.436c2.648-1.448,3.992-3.926,3.992-7.363
			c0.004-0.074,0.201-4.964-2.898-8.218c-2.462-2.583-6.375-3.481-11.527-2.646l-0.654,0.105l0.076-0.657
			c0.014-0.104,1.15-10.571-4.945-17.526c-3.543-4.042-8.832-6.147-15.723-6.256c-0.021-0.001-0.182-0.007-0.468-0.007
			c-3.406,0-20.411,0.861-20.738,17.862l-0.012,0.599l-0.587-0.119c-0.008-0.001-0.787-0.155-1.893-0.155
			c-1.78,0-4.266,0.389-5.995,2.238c-1.562,1.674-2.235,4.262-2,7.691l0.041,0.598l-0.596-0.065
			C32.389,51.081,31.885,51.026,31.105,51.026z"/>
	</g>
	<g>
		<path fill="#00AEEB" d="M24.242,89.698c-0.982-0.572-1.326-1.826-0.758-2.81l0,0c0.578-0.99,1.835-1.324,2.824-0.758l0,0
			c0.982,0.571,1.318,1.834,0.748,2.816l0,0c-0.383,0.66-1.073,1.027-1.784,1.027l0,0C24.922,89.977,24.564,89.887,24.242,89.698z"
			/>
	</g>
	<g>
		<path fill="#00AEEB" d="M31.12,77.823c-0.983-0.57-1.323-1.835-0.756-2.815l0,0c0.577-0.989,1.833-1.321,2.822-0.756l0,0
			c0.982,0.568,1.318,1.833,0.748,2.814l0,0c-0.382,0.659-1.077,1.03-1.783,1.03l0,0C31.8,78.096,31.443,78.006,31.12,77.823z"/>
	</g>
	<g>
		<path fill="#00AEEB" d="M30.992,101.632c-0.98-0.572-1.318-1.828-0.75-2.814l0,0c0.571-0.98,1.834-1.315,2.816-0.748l0,0
			c0.98,0.568,1.318,1.828,0.748,2.808l0,0c-0.376,0.664-1.071,1.031-1.785,1.031l0,0C31.669,101.907,31.322,101.818,30.992,101.632
			z"/>
	</g>
	<g>
		<path fill="#00AEEB" d="M37.871,89.749c-0.98-0.57-1.326-1.832-0.755-2.814l0,0c0.568-0.991,1.832-1.317,2.818-0.755l0,0
			c0.983,0.571,1.318,1.831,0.752,2.815l0,0c-0.387,0.657-1.077,1.025-1.786,1.025l0,0C38.55,90.022,38.195,89.932,37.871,89.749z"
			/>
	</g>
	<g>
		<path fill="#00AEEB" d="M44.744,77.863c-0.982-0.565-1.32-1.829-0.75-2.809l0,0c0.569-0.992,1.827-1.324,2.816-0.759l0,0
			c0.979,0.569,1.318,1.833,0.746,2.816l0,0c-0.379,0.656-1.069,1.028-1.784,1.028l0,0C45.422,78.141,45.07,78.051,44.744,77.863z"
			/>
	</g>
	<g>
		<path fill="#00AEEB" d="M52.467,89.698c-0.984-0.572-1.318-1.826-0.75-2.81l0,0c0.571-0.99,1.828-1.324,2.807-0.758l0,0
			c0.988,0.571,1.327,1.834,0.756,2.816l0,0c-0.385,0.66-1.072,1.027-1.783,1.027l0,0C53.146,89.977,52.787,89.887,52.467,89.698z
			 M59.346,77.823c-0.982-0.57-1.328-1.835-0.756-2.815l0,0c0.566-0.989,1.83-1.321,2.812-0.756l0,0
			c0.988,0.568,1.324,1.833,0.758,2.814l0,0c-0.387,0.659-1.077,1.03-1.784,1.03l0,0C60.021,78.096,59.668,78.006,59.346,77.823z"/>
	</g>
	<g>
		<path fill="#00AEEB" d="M60.859,101.677c-0.988-0.562-1.333-1.82-0.77-2.809l0,0c0.561-0.988,1.82-1.33,2.808-0.769l0,0
			c0.988,0.562,1.334,1.82,0.771,2.807l0,0c-0.377,0.67-1.078,1.042-1.792,1.042l0,0C61.532,101.948,61.182,101.863,60.859,101.677z
			"/>
	</g>
	<g>
		<path fill="#00AEEB" d="M67.663,89.753c-0.989-0.563-1.333-1.827-0.771-2.818l0,0c0.559-0.979,1.82-1.329,2.808-0.76l0,0
			c0.991,0.561,1.335,1.819,0.771,2.803l0,0c-0.388,0.665-1.08,1.043-1.791,1.043l0,0C68.328,90.021,67.98,89.931,67.663,89.753z"/>
	</g>
	<g>
		<path fill="#00AEEB" d="M74.459,77.823c-0.988-0.562-1.332-1.817-0.766-2.81l0,0c0.559-0.987,1.824-1.328,2.812-0.77l0,0
			c0.988,0.562,1.334,1.82,0.767,2.809l0,0c-0.383,0.668-1.076,1.044-1.791,1.044l0,0C75.129,78.096,74.781,78.006,74.459,77.823z"
			/>
	</g>
	<g>
		<path fill="#00AEEB" d="M81.043,89.698c-0.988-0.572-1.32-1.826-0.759-2.81l0,0c0.571-0.99,1.835-1.324,2.815-0.758l0,0
			c0.984,0.571,1.325,1.834,0.756,2.816l0,0c-0.383,0.66-1.07,1.027-1.785,1.027l0,0C81.721,89.977,81.363,89.887,81.043,89.698z"/>
	</g>
	<g>
		<path fill="#00AEEB" d="M87.922,77.823c-0.984-0.57-1.32-1.835-0.753-2.815l0,0c0.573-0.989,1.828-1.321,2.817-0.756l0,0
			c0.979,0.568,1.314,1.833,0.748,2.814l0,0c-0.385,0.659-1.074,1.03-1.787,1.03l0,0C88.598,78.096,88.24,78.006,87.922,77.823z"/>
	</g>
</g>
</svg>
