<?xml version="1.0" encoding="utf-8"?>
<!-- Generator: Adobe Illustrator 15.0.0, SVG Export Plug-In . SVG Version: 6.00 Build 0)  -->
<!DOCTYPE svg PUBLIC "-//W3C//DTD SVG 1.1//EN" "http://www.w3.org/Graphics/SVG/1.1/DTD/svg11.dtd">
<svg version="1.1" id="Layer_1" xmlns="http://www.w3.org/2000/svg" xmlns:xlink="http://www.w3.org/1999/xlink" x="0px" y="0px"
	 width="121px" height="121.6px" viewBox="0 0 121 121.6" enable-background="new 0 0 121 121.6" xml:space="preserve">
<g>
	<path fill="#00AEEB" d="M63.852,95.566c-15.146,0-28.657-10.176-32.856-24.748c-5.224-18.125,5.272-37.12,23.399-42.347
		c8.354-2.406,17.471-1.499,25.168,2.477l0.926,0.477l-0.949,0.424C68.59,36.74,62.843,49.135,66.169,60.68
		c2.974,10.321,12.543,17.53,23.271,17.53c1.129,0,2.271-0.082,3.392-0.24l1.028-0.146l-0.527,0.895
		C88.873,86.284,81.773,91.79,73.34,94.22C70.238,95.113,67.047,95.566,63.852,95.566z M63.881,28.126
		c-3.102,0-6.2,0.438-9.21,1.306C37.074,34.505,26.885,52.946,31.955,70.54c4.078,14.146,17.194,24.024,31.896,24.024
		c3.102,0,6.201-0.438,9.211-1.307c7.858-2.265,14.524-7.279,18.875-14.174c-0.83,0.082-1.668,0.125-2.498,0.125
		c-11.17,0-21.135-7.506-24.229-18.252c-3.367-11.686,2.194-24.208,12.978-29.579C73.723,29.248,68.8,28.126,63.881,28.126z"/>
</g>
</svg>
