<?xml version="1.0" encoding="utf-8"?>
<!-- Generator: Adobe Illustrator 15.0.0, SVG Export Plug-In . SVG Version: 6.00 Build 0)  -->
<!DOCTYPE svg PUBLIC "-//W3C//DTD SVG 1.1//EN" "http://www.w3.org/Graphics/SVG/1.1/DTD/svg11.dtd">
<svg version="1.1" id="Layer_1" xmlns="http://www.w3.org/2000/svg" xmlns:xlink="http://www.w3.org/1999/xlink" x="0px" y="0px"
	 width="121px" height="121.6px" viewBox="0 0 121 121.6" enable-background="new 0 0 121 121.6" xml:space="preserve">
<g>
	<g>
		<g>
			<g>
				<path fill="#00AEEB" d="M104.575,56.16c-7.36,1.04-14.49-3.58-16.56-10.75c-2.07-7.17,1.5-14.87,8.31-17.91l0.95-0.42
					l-0.932-0.48c-4.949-2.55-10.619-3.109-15.97-1.569c-5.201,1.5-9.601,4.84-12.42,9.42c-2.401-0.771-5.091-1.181-8.06-1.23
					c0,0-0.181-0.01-0.501-0.01c-1.529,0-6.909,0.189-11.89,2.64c-6.229,3.05-9.529,8.311-9.83,15.63
					c-0.37-0.04-0.89-0.08-1.511-0.08c-1.979,0-4.749,0.44-6.719,2.551c-1.67,1.79-2.44,4.43-2.3,7.868
					c-2.46-0.118-11.58,0.062-11.57,8.892c-0.021,0.12-0.481,3.03,1.55,5.438c1.689,1.99,4.539,3,8.49,3h57.979
					c0.021,0,0.602,0.062,1.499,0.062c1.861,0,4.581-0.271,6.933-1.55c2.99-1.641,4.51-4.41,4.51-8.221
					c0.01-0.131,0.08-1.92-0.53-4.101c3.79-1.87,6.91-4.78,9.08-8.43l0.521-0.9L104.575,56.16z M95.535,69.42
					c0,3.431-1.34,5.91-3.99,7.36c-1.141,0.618-2.391,0.979-3.54,1.18s-2.19,0.25-2.911,0.25c-0.839,0-1.379-0.062-1.438-0.062
					h-58.04c-3.63,0-6.221-0.89-7.71-2.64c-1.741-2.04-1.352-4.62-1.34-4.72c0-7.21,6.829-7.99,9.77-7.99
					c0.771,0,1.28,0.051,1.28,0.051l0.6,0.069l-0.041-0.602c-0.238-3.429,0.441-6.009,2-7.688c1.731-1.851,4.211-2.23,5.99-2.23
					c1.111,0,1.89,0.15,1.901,0.15l0.58,0.12l0.01-0.601c0.33-17,17.33-17.859,20.739-17.859c0.291,0,0.45,0,0.471,0.01
					c3.021,0.04,5.72,0.47,8.11,1.28c0.02,0.01,0.039,0.01,0.06,0.02c3.04,1.04,5.569,2.69,7.55,4.95
					c6.102,6.96,4.96,17.42,4.95,17.53l-0.08,0.649l0.66-0.1c5.14-0.84,9.059,0.06,11.521,2.65
					C95.734,64.45,95.535,69.34,95.535,69.42z M95.704,64.37c-0.47-1.302-1.199-2.67-2.339-3.86c-2.59-2.729-6.57-3.76-11.78-3.04
					c0.17-2.47,0.33-11.3-5.239-17.65c-1.979-2.26-4.461-3.939-7.421-5.039c2.7-4.271,6.841-7.381,11.729-8.79
					c4.779-1.37,9.82-1,14.32,1.06c-6.641,3.5-10.029,11.33-7.922,18.64c2.11,7.311,9.15,12.141,16.633,11.57
					C101.686,60.3,98.945,62.75,95.704,64.37z"/>
			</g>
		</g>
		<g>
			<g>
				<g>
					<path fill="#00AEEB" d="M24.926,86.835c-0.198,0-0.4-0.062-0.576-0.186c-0.45-0.318-0.558-0.941-0.238-1.394l0.072-0.104
						c0.319-0.449,0.942-0.558,1.395-0.236c0.45,0.317,0.558,0.941,0.238,1.394l-0.072,0.104
						C25.549,86.688,25.239,86.835,24.926,86.835z"/>
				</g>
			</g>
			<g>
				<g>
					<path fill="#00AEEB" d="M20.653,92.872c-0.199,0-0.4-0.06-0.576-0.184c-0.452-0.318-0.559-0.941-0.24-1.394l0.088-0.123
						c0.318-0.451,0.941-0.559,1.394-0.24c0.451,0.318,0.559,0.943,0.239,1.396L21.47,92.45
						C21.276,92.726,20.966,92.872,20.653,92.872z"/>
				</g>
			</g>
			<g>
				<g>
					<path fill="#00AEEB" d="M16.394,98.889c-0.199,0-0.401-0.06-0.577-0.185c-0.45-0.318-0.558-0.942-0.238-1.395l0.072-0.103
						c0.319-0.449,0.942-0.56,1.395-0.237c0.45,0.319,0.558,0.942,0.238,1.395l-0.072,0.103
						C17.016,98.741,16.707,98.889,16.394,98.889z"/>
				</g>
			</g>
		</g>
		<g>
			<g>
				<path fill="#00AEEB" d="M30.681,98.389c-0.101,0-0.202-0.03-0.289-0.092c-0.226-0.159-0.278-0.472-0.119-0.697l8.607-12.156
					c0.16-0.226,0.474-0.275,0.697-0.118c0.226,0.158,0.277,0.472,0.118,0.696l-8.606,12.156
					C30.991,98.316,30.837,98.389,30.681,98.389z"/>
			</g>
		</g>
		<g>
			<g>
				<g>
					<path fill="#00AEEB" d="M53.504,86.835c-0.202,0-0.406-0.062-0.583-0.188c-0.448-0.321-0.551-0.946-0.229-1.396l0.073-0.103
						c0.322-0.448,0.946-0.551,1.396-0.229c0.449,0.322,0.552,0.946,0.229,1.396l-0.072,0.103
						C54.122,86.69,53.814,86.835,53.504,86.835z"/>
				</g>
			</g>
			<g>
				<g>
					<path fill="#00AEEB" d="M49.227,92.872c-0.199,0-0.4-0.06-0.576-0.184c-0.451-0.318-0.559-0.941-0.239-1.394l0.087-0.123
						c0.318-0.451,0.94-0.559,1.393-0.24c0.451,0.318,0.56,0.943,0.24,1.396l-0.087,0.123C49.85,92.726,49.54,92.872,49.227,92.872z
						"/>
				</g>
			</g>
			<g>
				<g>
					<path fill="#00AEEB" d="M44.961,98.889c-0.199,0-0.4-0.06-0.576-0.185c-0.45-0.318-0.558-0.942-0.238-1.395l0.072-0.103
						c0.319-0.449,0.941-0.56,1.395-0.237c0.449,0.319,0.558,0.942,0.237,1.395l-0.071,0.103
						C45.584,98.741,45.275,98.889,44.961,98.889z"/>
				</g>
			</g>
		</g>
		<g>
			<g>
				<path fill="#00AEEB" d="M59.258,98.389c-0.101,0-0.201-0.03-0.289-0.092c-0.226-0.159-0.278-0.472-0.119-0.697l8.604-12.156
					c0.161-0.226,0.473-0.275,0.696-0.118c0.227,0.158,0.279,0.472,0.119,0.696l-8.604,12.156
					C59.567,98.316,59.414,98.389,59.258,98.389z"/>
			</g>
		</g>
		<g>
			<g>
				<g>
					<path fill="#00AEEB" d="M82.073,86.835c-0.199,0-0.401-0.062-0.577-0.186c-0.451-0.318-0.559-0.941-0.238-1.394l0.072-0.104
						c0.32-0.449,0.939-0.558,1.395-0.236c0.449,0.317,0.559,0.941,0.238,1.394l-0.072,0.104
						C82.695,86.688,82.387,86.835,82.073,86.835z"/>
				</g>
			</g>
			<g>
				<g>
					<path fill="#00AEEB" d="M77.8,92.872c-0.198,0-0.399-0.06-0.575-0.184c-0.451-0.318-0.561-0.941-0.24-1.394l0.088-0.123
						c0.316-0.451,0.941-0.559,1.394-0.24c0.451,0.318,0.558,0.943,0.239,1.396l-0.087,0.123
						C78.423,92.726,78.113,92.872,77.8,92.872z"/>
				</g>
			</g>
			<g>
				<g>
					<path fill="#00AEEB" d="M73.54,98.889c-0.199,0-0.401-0.06-0.577-0.185c-0.449-0.318-0.559-0.942-0.238-1.395l0.072-0.103
						c0.319-0.449,0.941-0.56,1.395-0.237c0.451,0.319,0.558,0.942,0.238,1.395l-0.072,0.103
						C74.162,98.741,73.854,98.889,73.54,98.889z"/>
				</g>
			</g>
		</g>
	</g>
</g>
</svg>
