<?xml version="1.0" encoding="utf-8"?>
<!-- Generator: Adobe Illustrator 15.0.0, SVG Export Plug-In . SVG Version: 6.00 Build 0)  -->
<!DOCTYPE svg PUBLIC "-//W3C//DTD SVG 1.1//EN" "http://www.w3.org/Graphics/SVG/1.1/DTD/svg11.dtd">
<svg version="1.1" id="Layer_1" xmlns="http://www.w3.org/2000/svg" xmlns:xlink="http://www.w3.org/1999/xlink" x="0px" y="0px"
	 width="121px" height="121.6px" viewBox="0 0 121 121.6" enable-background="new 0 0 121 121.6" xml:space="preserve">
<g>
	<g>
		<g>
			<path fill="#00AEEB" d="M104.721,57.01c-7.361,1.04-14.49-3.57-16.561-10.74c-2.062-7.18,1.509-14.88,8.311-17.92l0.949-0.42
				l-0.93-0.479c-4.95-2.551-10.62-3.11-15.973-1.57c-5.277,1.53-9.729,4.939-12.549,9.64c-2.529-0.87-5.39-1.35-8.58-1.39
				c0,0-0.18-0.01-0.5-0.01c-1.53,0-6.899,0.189-11.89,2.64c-6.22,3.05-9.53,8.31-9.831,15.64c-0.359-0.05-0.879-0.09-1.5-0.09
				c-1.979,0-4.759,0.44-6.729,2.561c-1.671,1.779-2.44,4.43-2.301,7.858c-2.46-0.119-11.581,0.07-11.569,8.892
				c-0.021,0.12-0.48,3.04,1.559,5.438c1.681,1.99,4.54,3,8.481,3H83.09c0.03,0,0.602,0.07,1.5,0.07c1.86,0,4.579-0.271,6.939-1.562
				c2.988-1.639,4.511-4.408,4.5-8.219c0.011-0.121,0.08-1.801-0.459-3.881c4.039-1.85,7.38-4.85,9.66-8.71l0.52-0.9L104.721,57.01z
				 M95.04,70.33c0,3.439-1.351,5.91-4,7.359c-2.28,1.25-5.021,1.439-6.45,1.439c-0.84,0-1.38-0.062-1.439-0.07H25.11
				c-3.63,0-6.221-0.879-7.711-2.629c-1.739-2.051-1.35-4.621-1.341-4.729c0-7.21,6.831-7.99,9.771-7.99
				c0.78,0,1.28,0.061,1.28,0.061l0.6,0.069l-0.041-0.6c-0.239-3.431,0.441-6.021,2-7.69c1.73-1.85,4.221-2.24,6-2.24
				c1.101,0,1.881,0.15,1.891,0.15l0.591,0.12l0.01-0.601c0.33-17,17.33-17.859,20.729-17.859c0.29,0,0.45,0.01,0.47,0.01
				c6.891,0.11,12.181,2.21,15.721,6.25c6.1,6.96,4.96,17.43,4.949,17.53L79.95,59.57l0.659-0.109c5.149-0.83,9.06,0.07,11.52,2.649
				C95.24,65.37,95.04,70.26,95.04,70.33z M95.27,65.5c-0.459-1.36-1.211-2.811-2.398-4.069C90.27,58.7,86.3,57.66,81.08,58.38
				c0.17-2.46,0.33-11.29-5.24-17.65c-1.869-2.13-4.18-3.76-6.93-4.85c2.71-4.4,6.908-7.6,11.89-9.04
				c4.78-1.37,9.82-0.99,14.32,1.06c-6.64,3.5-10.03,11.33-7.92,18.641c2.108,7.31,9.14,12.13,16.63,11.569
				C101.7,61.351,98.77,63.88,95.27,65.5z"/>
		</g>
		<g>
			<line fill="none" x1="24.498" y1="86.648" x2="15.893" y2="98.803"/>
			<path fill="#00AEEB" d="M15.893,99.303c-0.101,0-0.201-0.03-0.29-0.092c-0.226-0.159-0.278-0.472-0.118-0.697l8.605-12.155
				c0.161-0.227,0.474-0.276,0.697-0.118c0.226,0.159,0.278,0.472,0.119,0.696l-8.605,12.155
				C16.203,99.23,16.049,99.303,15.893,99.303z"/>
		</g>
		<g>
			<line fill="none" x1="38.786" y1="86.648" x2="30.176" y2="98.803"/>
			<path fill="#00AEEB" d="M30.176,99.303c-0.101,0-0.201-0.03-0.29-0.092c-0.226-0.159-0.278-0.472-0.118-0.697l8.609-12.155
				c0.162-0.227,0.474-0.276,0.698-0.118c0.226,0.159,0.278,0.472,0.119,0.696l-8.61,12.155
				C30.486,99.23,30.332,99.303,30.176,99.303z"/>
		</g>
		<g>
			<line fill="none" x1="53.075" y1="86.648" x2="44.461" y2="98.803"/>
			<path fill="#00AEEB" d="M44.461,99.303c-0.102,0-0.201-0.03-0.289-0.093c-0.226-0.159-0.278-0.471-0.119-0.696l8.614-12.155
				c0.161-0.227,0.472-0.276,0.697-0.118c0.226,0.159,0.278,0.473,0.119,0.696l-8.615,12.155
				C44.771,99.23,44.617,99.303,44.461,99.303z"/>
		</g>
		<g>
			<line fill="none" x1="67.359" y1="86.648" x2="58.753" y2="98.803"/>
			<path fill="#00AEEB" d="M58.753,99.303c-0.102,0-0.201-0.03-0.289-0.092c-0.226-0.159-0.278-0.472-0.119-0.697l8.606-12.155
				c0.16-0.227,0.474-0.276,0.695-0.118c0.228,0.159,0.278,0.472,0.121,0.696L59.16,99.092
				C59.063,99.23,58.908,99.303,58.753,99.303z"/>
		</g>
		<g>
			<line fill="none" x1="81.643" y1="86.648" x2="73.039" y2="98.803"/>
			<path fill="#00AEEB" d="M73.039,99.303c-0.102,0-0.202-0.03-0.289-0.092c-0.227-0.159-0.277-0.472-0.119-0.697l8.604-12.155
				c0.16-0.227,0.474-0.276,0.697-0.118c0.226,0.159,0.278,0.472,0.119,0.696l-8.604,12.155
				C73.35,99.23,73.195,99.303,73.039,99.303z"/>
		</g>
	</g>
</g>
</svg>
