<?xml version="1.0" encoding="utf-8"?>
<!-- Generator: Adobe Illustrator 15.0.0, SVG Export Plug-In . SVG Version: 6.00 Build 0)  -->
<!DOCTYPE svg PUBLIC "-//W3C//DTD SVG 1.1//EN" "http://www.w3.org/Graphics/SVG/1.1/DTD/svg11.dtd">
<svg version="1.1" id="Layer_1" xmlns="http://www.w3.org/2000/svg" xmlns:xlink="http://www.w3.org/1999/xlink" x="0px" y="0px"
	 width="121px" height="121.6px" viewBox="0 0 121 121.6" enable-background="new 0 0 121 121.6" xml:space="preserve">
<g>
	<g>
		<g>
			<g>
				<path fill="#00AEEB" d="M46.536,40.281c-0.013,0-0.026,0-0.04-0.001c-0.275-0.022-0.48-0.264-0.458-0.539l0.597-7.46
					c0.021-0.275,0.269-0.479,0.538-0.458c0.275,0.021,0.48,0.263,0.458,0.538l-0.597,7.461
					C47.014,40.084,46.795,40.281,46.536,40.281z"/>
			</g>
		</g>
		<g>
			<path fill="#00AEEB" d="M102.95,71.34c-2.591-2.729-6.562-3.76-11.781-3.04c0.171-2.47,0.331-11.29-5.229-17.65
				C82.21,46.39,76.68,44.17,69.5,44.04h-0.52c-0.582,0-1.82,0.029-3.44,0.229l1.71-1.46c0.21-0.17,0.24-0.49,0.061-0.7
				c-0.181-0.21-0.5-0.239-0.699-0.06l-2.961,2.52c-3.899,0.74-8.989,2.49-12.43,6.631c0.13,0.079,0.261,0.159,0.38,0.25
				c0.23,0.159,0.28,0.47,0.12,0.699c-0.16,0.23-0.47,0.28-0.689,0.12c-0.141-0.1-0.28-0.2-0.431-0.279
				c-2.05,2.789-3.17,6.26-3.34,10.318c-0.359-0.039-0.89-0.09-1.51-0.09c-1.971,0-4.75,0.45-6.72,2.561
				c-0.892,0.961-1.53,2.16-1.901,3.601c-2.119-2.199-3.188-5.16-2.938-8.24c0.229-2.85,1.55-5.43,3.72-7.28
				c2.18-1.859,4.95-2.75,7.79-2.52c1.75,0.14,3.429,0.7,4.899,1.65c0.101-0.15,0.21-0.29,0.32-0.431
				c0.099-0.12,0.19-0.24,0.3-0.359c-1.62-1.061-3.489-1.7-5.44-1.86c-3.11-0.25-6.14,0.729-8.51,2.75
				c-2.38,2.03-3.83,4.86-4.069,7.97c-0.29,3.601,1.05,7.041,3.689,9.49c-0.149,0.95-0.21,1.98-0.159,3.1
				c-1.551-0.08-5.75-0.028-8.641,2.23l-0.5,0.43l-5.2,4.432c-0.21,0.17-0.229,0.488-0.05,0.699c0.1,0.119,0.24,0.181,0.38,0.181
				c0.11,0,0.23-0.04,0.32-0.12l2.629-2.24c-0.329,0.931-0.509,2.011-0.509,3.271c-0.021,0.13-0.48,3.038,1.56,5.448
				c1.68,1.99,4.54,3,8.48,3H93.18c0.03,0,0.6,0.062,1.5,0.062c1.86,0,4.58-0.271,6.932-1.55c3-1.641,4.51-4.41,4.51-8.221
				C106.129,80.05,106.35,74.91,102.95,71.34z M105.12,80.25c0,3.431-1.341,5.91-3.991,7.359c-1.139,0.631-2.389,0.979-3.539,1.181
				c-1.15,0.21-2.189,0.25-2.91,0.25c-0.84,0-1.38-0.062-1.438-0.062H35.2c-3.63,0-6.22-0.89-7.71-2.64
				c-1.74-2.04-1.352-4.62-1.34-4.72c0-7.21,6.83-7.99,9.76-7.99c0.78,0,1.29,0.051,1.29,0.061l0.6,0.061l-0.04-0.602
				c-0.241-3.43,0.44-6.01,2-7.688c1.73-1.851,4.21-2.24,5.99-2.24c1.11,0,1.89,0.16,1.9,0.16l0.58,0.12l0.02-0.602
				c0.08-4.299,1.24-7.908,3.46-10.719c5.33-6.8,15.319-7.14,17.271-7.14h0.479l0.011-0.181l0.01,0.181h0.011l0.028,0.01
				c6.86,0.12,12.131,2.22,15.66,6.26c6.09,6.95,4.949,17.41,4.94,17.521l-0.08,0.66l0.66-0.11c5.149-0.84,9.06,0.061,11.521,2.649
				C105.318,75.281,105.129,80.17,105.12,80.25z"/>
			<path fill="#00AEEB" d="M51.72,52.15c-0.16,0.23-0.47,0.28-0.689,0.12c-0.141-0.1-0.28-0.2-0.431-0.279
				c0.101-0.15,0.21-0.29,0.32-0.431c0.099-0.12,0.19-0.24,0.3-0.359c0.13,0.08,0.261,0.159,0.38,0.25
				C51.83,51.61,51.88,51.92,51.72,52.15z"/>
		</g>
		<g>
			<g>
				<path fill="#00AEEB" d="M30.837,45.365c-0.142,0-0.283-0.061-0.381-0.177l-4.852-5.697c-0.179-0.21-0.153-0.526,0.056-0.705
					c0.21-0.179,0.526-0.154,0.706,0.057l4.852,5.698c0.179,0.21,0.153,0.524-0.058,0.705
					C31.067,45.326,30.952,45.365,30.837,45.365z"/>
			</g>
		</g>
		<g>
			<g>
				<path fill="#00AEEB" d="M23.328,60.063c-0.013,0-0.026,0-0.04-0.001l-7.46-0.598c-0.275-0.022-0.48-0.263-0.458-0.539
					c0.021-0.275,0.266-0.479,0.538-0.458l7.46,0.598c0.274,0.021,0.48,0.264,0.458,0.538
					C23.806,59.865,23.587,60.063,23.328,60.063z"/>
			</g>
		</g>
	</g>
	<g>
		<g>
			<path fill="#00AEEB" d="M51.6,51.45c-0.119-0.091-0.25-0.17-0.38-0.25c-0.109,0.119-0.201,0.239-0.3,0.359
				c-0.11,0.141-0.22,0.28-0.32,0.431c0.15,0.079,0.29,0.18,0.431,0.279c0.22,0.16,0.529,0.11,0.689-0.12
				C51.88,51.92,51.83,51.61,51.6,51.45z"/>
		</g>
	</g>
</g>
</svg>
