<?xml version="1.0" encoding="utf-8"?>
<!-- Generator: Adobe Illustrator 15.0.0, SVG Export Plug-In . SVG Version: 6.00 Build 0)  -->
<!DOCTYPE svg PUBLIC "-//W3C//DTD SVG 1.1//EN" "http://www.w3.org/Graphics/SVG/1.1/DTD/svg11.dtd">
<svg version="1.1" id="Layer_1" xmlns="http://www.w3.org/2000/svg" xmlns:xlink="http://www.w3.org/1999/xlink" x="0px" y="0px"
	 width="121px" height="121.6px" viewBox="0 0 121 121.6" enable-background="new 0 0 121 121.6" xml:space="preserve">
<g>
	<g>
		<path fill="#00AEEB" d="M89.359,72.128c-0.875,0-1.455-0.063-1.529-0.072l-15.955,0.003c-0.275,0-0.5-0.224-0.5-0.5
			c0-0.275,0.225-0.5,0.5-0.5h16.014c0.115,0.011,5.957,0.643,9.383-2.414c1.658-1.479,2.5-3.605,2.5-6.32
			c0.002-0.078,0.221-5.471-3.398-8.703c-2.482-2.22-6.193-2.948-11.027-2.164l-0.654,0.105l0.076-0.658
			c0.014-0.104,1.15-10.568-4.947-17.525c-3.541-4.042-8.832-6.147-15.723-6.256c-0.106-0.005-10.017-0.363-16.204,5.45
			c-3.217,3.021-4.897,7.194-4.998,12.405l-0.012,0.599l-0.587-0.118c-0.044-0.009-4.558-0.88-7.45,1.657
			c-1.876,1.646-2.696,4.376-2.44,8.115l0.041,0.599l-0.596-0.066c-0.058-0.007-5.608-0.588-8.799,2.266
			c-1.495,1.339-2.254,3.244-2.254,5.666c-0.01,0.106-0.403,2.684,1.336,4.727c1.491,1.75,4.085,2.638,7.71,2.638h16.094
			c0.275,0,0.5,0.225,0.5,0.5c0,0.276-0.225,0.5-0.5,0.5H29.844c-3.94,0-6.793-1.011-8.48-3.003
			c-2.036-2.403-1.578-5.32-1.558-5.441c-0.008-2.64,0.863-4.798,2.583-6.333c2.918-2.606,7.387-2.637,8.987-2.557
			c-0.154-3.78,0.792-6.592,2.815-8.365c2.645-2.314,6.309-2.143,7.721-1.971c0.215-5.229,1.996-9.448,5.301-12.549
			c6.5-6.1,16.487-5.735,16.914-5.716c7.174,0.112,12.714,2.335,16.451,6.602c5.564,6.356,5.404,15.186,5.236,17.649
			c4.851-0.669,8.623,0.172,11.229,2.506c3.974,3.558,3.737,9.228,3.726,9.468c0,2.989-0.955,5.368-2.838,7.046
			C95.273,71.762,91.461,72.128,89.359,72.128z"/>
	</g>
	<g>
		<g>
			<g>
				<path fill="#00AEEB" d="M70.822,65.642L50.742,95.32c-0.557,0.837-0.697,0.903-0.742,0.903c-0.673,0-0.349-0.903-0.349-0.903
					l9.229-24.392h-8.138c-0.535,0-0.673-0.279-0.535-0.812l8.139-21.564c0.279-0.416,0.395-0.557,0.812-0.557h11.13
					c0.534,0,0.786,0.278,0.534,0.814L62.15,64.831h8.277C70.959,64.831,71.074,65.225,70.822,65.642z"/>
			</g>
		</g>
	</g>
</g>
</svg>
