<?xml version="1.0" encoding="utf-8"?>
<!-- Generator: Adobe Illustrator 15.0.0, SVG Export Plug-In . SVG Version: 6.00 Build 0)  -->
<!DOCTYPE svg PUBLIC "-//W3C//DTD SVG 1.1//EN" "http://www.w3.org/Graphics/SVG/1.1/DTD/svg11.dtd">
<svg version="1.1" id="Layer_1" xmlns="http://www.w3.org/2000/svg" xmlns:xlink="http://www.w3.org/1999/xlink" x="0px" y="0px"
	 width="121px" height="121.6px" viewBox="0 0 121 121.6" enable-background="new 0 0 121 121.6" xml:space="preserve">
<g>
	<g>
		<path fill="#00AEEB" d="M94.439,35.52c0-7.05-14.239-12.58-32.422-12.58C43.84,22.94,29.6,28.47,29.6,35.52
			c0,2.511,1.811,4.83,4.96,6.771c-6.079,1.96-9.899,4.93-9.899,8.319c0,3.431,3.92,6.44,10.149,8.391
			c-0.319,0.6-0.479,1.229-0.479,1.87c0,3.71,5.47,6.83,13.489,8.21c-0.279,0.521-0.42,1.06-0.42,1.62
			c0,2.04,1.931,3.858,5.119,5.22c-3.908,1.21-6.39,3.11-6.39,5.28c0,1.52,1.201,2.899,3.261,4.01c-3.81,0.93-6.31,2.62-6.31,4.58
			c0,1.01,0.65,1.938,1.8,2.729c-3.04,0.511-5.51,1.689-5.51,3.459c0,2.451,4.7,3.771,9.13,3.771c4.42,0,9.12-1.319,9.12-3.771
			c0-0.299-0.07-0.58-0.2-0.84c7.03-0.18,12.41-2.459,12.41-5.35c0-0.812-0.432-1.58-1.201-2.26C75.26,86.64,79.9,84.181,79.9,81.2
			c0-1.49-1.17-2.86-3.17-3.96c5.588-1.33,9.25-3.73,9.25-6.54c0-2.562-3.041-4.78-7.812-6.16c1.262-1.109,1.951-2.351,1.951-3.67
			c0-1.841-1.352-3.54-3.7-4.95c2.22-1.561,3.479-3.37,3.479-5.311c0-1.46-0.699-2.83-1.989-4.08
			C87.85,44.41,94.439,40.32,94.439,35.52z M48.5,98.75c-4.79,0-8.13-1.46-8.13-2.771c0-1.09,2.34-2.289,5.92-2.648
			c0,0,0.01,0,0.02,0c2.381,1.101,5.891,1.8,9.881,1.83c0,0,0,0,0.01,0c0.27,0.271,0.42,0.55,0.42,0.818
			C56.62,97.29,53.29,98.75,48.5,98.75z M48.88,93.23c2.2,0.03,4.061,0.371,5.42,0.86C52.23,93.97,50.399,93.66,48.88,93.23z
			 M68.83,89.79c0,2.1-4.92,4.35-12.26,4.37c-1.63-1.271-4.92-1.94-8.07-1.94c-0.681,0-1.371,0.03-2.05,0.1
			c-1.521-0.76-2.37-1.658-2.37-2.528c0-1.521,2.57-3.109,6.77-3.892c0,0,0.011,0,0.021,0c3.05,1.24,7.34,2,12.148,2
			c1.461,0,2.871-0.068,4.211-0.198C68.27,88.351,68.83,89.08,68.83,89.79z M53.019,85.601c1.071-0.121,2.222-0.181,3.441-0.181
			c3.73,0,6.84,0.57,9.011,1.41c-0.791,0.05-1.609,0.068-2.451,0.068C59.07,86.9,55.66,86.39,53.019,85.601z M78.9,81.2
			c0,2.3-4.461,4.739-11.48,5.479c-2.4-1.381-6.37-2.261-10.96-2.261c-1.95,0-3.791,0.16-5.45,0.45H51
			c-2.46-1.052-3.871-2.38-3.871-3.67c0-1.761,2.602-3.591,6.961-4.69c3.35,1.13,7.74,1.8,12.602,1.8c3.039,0,5.898-0.26,8.43-0.74
			C77.529,78.611,78.9,79.92,78.9,81.2z M56.169,76.07c2.021-0.358,4.321-0.568,6.851-0.568c4.039,0,7.512,0.53,10.172,1.359
			c-2.03,0.289-4.221,0.449-6.5,0.449C62.811,77.31,59.169,76.851,56.169,76.07z M84.98,70.7c0,2.479-4.012,4.688-9.771,5.819
			c-3.05-1.25-7.35-2.021-12.191-2.021c-3.269,0-6.298,0.351-8.85,0.97c-3.529-1.21-5.77-2.92-5.77-4.77c0-0.5,0.16-0.98,0.471-1.45
			c2.569,0.38,5.39,0.59,8.35,0.59c8.66,0,16.06-1.8,19.949-4.521h0.012C81.859,66.54,84.98,68.521,84.98,70.7z M49.669,68.33
			c2.701-2.45,9.401-4.24,17.021-4.24c3.301,0,6.431,0.341,9.141,0.92c-3.9,2.28-10.87,3.83-18.61,3.83
			C54.58,68.84,52.03,68.66,49.669,68.33z M79.12,60.87c0,1.188-0.761,2.33-2.12,3.358c-2.96-0.729-6.49-1.14-10.311-1.14
			c-8.551,0-15.631,2.08-18.22,5.06c-7.66-1.26-13.14-4.09-13.14-7.278c0-0.54,0.15-1.061,0.449-1.57
			c4.58,1.31,10.271,2.07,16.5,2.07c9.832,0,18.311-1.91,23.19-4.841C77.77,57.79,79.12,59.281,79.12,60.87z M36.46,58.4
			c2.92-3.159,11.25-5.51,20.76-5.51c6.85,0,13.09,1.22,17.139,3.09c-4.818,2.62-13.01,4.391-22.08,4.391
			C46.41,60.37,40.92,59.63,36.46,58.4z M78.9,50.61c0,1.71-1.28,3.341-3.49,4.75c-4.15-2.119-10.7-3.47-18.19-3.47
			c-10.34,0-18.89,2.57-21.81,6.2c-5.92-1.8-9.75-4.51-9.75-7.48c0-3.04,4-5.8,10.14-7.609c5.851,3.109,15.329,5.1,26.22,5.1
			c5.312,0,10.291-0.47,14.672-1.319C78.109,47.97,78.9,49.26,78.9,50.61z M37.34,42.59c4.289-1.1,9.45-1.75,14.939-1.75
			c9.89,0,18.721,2.1,23.301,5.13c-4.109,0.72-8.71,1.13-13.562,1.13C52.139,47.1,43.15,45.31,37.34,42.59z M76.971,45.7
			c-4.5-3.5-13.761-5.86-24.691-5.86c-6.159,0-11.799,0.75-16.35,2.03c-3.35-1.83-5.33-4.021-5.33-6.351
			c0-6.279,14.391-11.58,31.419-11.58c17.03,0,31.42,5.301,31.42,11.58C93.439,39.91,86.77,43.74,76.971,45.7z"/>
	</g>
</g>
</svg>
