<?xml version="1.0" encoding="utf-8"?>
<!-- Generator: Adobe Illustrator 15.0.0, SVG Export Plug-In . SVG Version: 6.00 Build 0)  -->
<!DOCTYPE svg PUBLIC "-//W3C//DTD SVG 1.1//EN" "http://www.w3.org/Graphics/SVG/1.1/DTD/svg11.dtd">
<svg version="1.1" id="Layer_1" xmlns="http://www.w3.org/2000/svg" xmlns:xlink="http://www.w3.org/1999/xlink" x="0px" y="0px"
	 width="121px" height="121.6px" viewBox="0 0 121 121.6" enable-background="new 0 0 121 121.6" xml:space="preserve">
<g>
	<g>
		<path fill="#00AEEB" d="M89.27,74.349L89.27,74.349c-0.896,0-1.47-0.063-1.494-0.067L29.79,74.285
			c-3.941,0-6.795-1.011-8.482-3.003c-2.036-2.403-1.578-5.319-1.558-5.442c-0.009-8.818,9.122-9.003,11.57-8.885
			c-0.139-3.438,0.633-6.083,2.301-7.867c1.974-2.112,4.746-2.556,6.724-2.556c0.619,0,1.142,0.044,1.511,0.088
			c0.297-7.323,3.602-12.582,9.826-15.638c4.986-2.447,10.363-2.638,11.892-2.638c0.322,0,0.498,0.008,0.498,0.008
			c7.176,0.113,12.716,2.334,16.453,6.604c5.564,6.354,5.406,15.185,5.238,17.647c5.223-0.718,9.189,0.318,11.784,3.046
			c3.396,3.571,3.181,8.71,3.169,8.928c0.001,3.807-1.517,6.578-4.51,8.217C93.852,74.079,91.134,74.349,89.27,74.349z
			 M30.508,57.935c-2.936,0-9.766,0.778-9.766,7.986c-0.011,0.106-0.403,2.682,1.336,4.725c1.489,1.751,4.085,2.64,7.711,2.64
			h58.044c0.062,0.004,0.603,0.063,1.437,0.063c1.432,0,4.174-0.186,6.457-1.436c2.647-1.447,3.99-3.927,3.99-7.363
			c0.004-0.073,0.201-4.964-2.9-8.219c-2.461-2.583-6.369-3.484-11.526-2.647l-0.653,0.105l0.076-0.657
			c0.014-0.105,1.15-10.569-4.945-17.525c-3.543-4.042-8.834-6.146-15.726-6.256c-0.021-0.001-0.181-0.007-0.47-0.007
			c-3.403,0-20.404,0.861-20.734,17.863l-0.012,0.599l-0.588-0.118c-0.008-0.002-0.787-0.156-1.894-0.156
			c-1.781,0-4.265,0.388-5.992,2.238c-1.562,1.672-2.236,4.259-2.002,7.69l0.041,0.597l-0.596-0.065
			C31.79,57.99,31.287,57.935,30.508,57.935z"/>
	</g>
	<g>
		<path fill="#00AEEB" d="M20.572,93.524c-0.101,0-0.201-0.029-0.289-0.092c-0.226-0.159-0.278-0.472-0.119-0.697l8.606-12.156
			c0.162-0.228,0.474-0.277,0.698-0.119c0.226,0.16,0.278,0.472,0.119,0.697L20.98,93.313C20.883,93.45,20.729,93.524,20.572,93.524
			z"/>
	</g>
	<g>
		<path fill="#00AEEB" d="M34.857,93.524c-0.101,0-0.201-0.029-0.29-0.092c-0.226-0.159-0.277-0.472-0.118-0.697l8.609-12.156
			c0.162-0.228,0.474-0.277,0.698-0.119c0.226,0.16,0.278,0.472,0.119,0.697l-8.61,12.156C35.168,93.45,35.014,93.524,34.857,93.524
			z"/>
	</g>
	<g>
		<path fill="#00AEEB" d="M49.141,93.524c-0.101,0-0.201-0.029-0.29-0.093c-0.225-0.159-0.278-0.471-0.118-0.696l8.616-12.156
			c0.161-0.228,0.474-0.277,0.696-0.119c0.226,0.16,0.279,0.473,0.12,0.697l-8.616,12.156C49.451,93.45,49.297,93.524,49.141,93.524
			z"/>
	</g>
	<g>
		<path fill="#00AEEB" d="M63.436,93.524c-0.102,0-0.201-0.029-0.289-0.092c-0.227-0.159-0.278-0.472-0.119-0.697l8.604-12.156
			c0.161-0.228,0.475-0.277,0.697-0.119c0.227,0.16,0.277,0.472,0.119,0.697l-8.604,12.156C63.744,93.45,63.59,93.524,63.436,93.524
			z"/>
	</g>
	<g>
		<path fill="#00AEEB" d="M77.718,93.524c-0.101,0-0.2-0.029-0.288-0.092c-0.227-0.159-0.279-0.472-0.119-0.697l8.605-12.156
			c0.16-0.228,0.475-0.277,0.697-0.119c0.226,0.16,0.277,0.472,0.119,0.697l-8.606,12.156C78.027,93.45,77.874,93.524,77.718,93.524
			z"/>
	</g>
</g>
</svg>
