<?xml version="1.0" encoding="utf-8"?>
<!-- Generator: Adobe Illustrator 15.0.0, SVG Export Plug-In . SVG Version: 6.00 Build 0)  -->
<!DOCTYPE svg PUBLIC "-//W3C//DTD SVG 1.1//EN" "http://www.w3.org/Graphics/SVG/1.1/DTD/svg11.dtd">
<svg version="1.1" id="Layer_1" xmlns="http://www.w3.org/2000/svg" xmlns:xlink="http://www.w3.org/1999/xlink" x="0px" y="0px"
	 width="121px" height="121.6px" viewBox="0 0 121 121.6" enable-background="new 0 0 121 121.6" xml:space="preserve">
<g>
	<g>
		<g>
			<g>
				<path fill="#00AEEB" d="M104.95,56.44C97.57,57.48,90.46,52.87,88.389,45.7C86.33,38.52,89.9,30.82,96.7,27.781l0.938-0.421
					l-0.92-0.479c-4.939-2.55-10.609-3.11-15.97-1.57c-4.87,1.41-9.101,4.48-11.931,8.66c-2.762-1.12-5.971-1.71-9.589-1.77
					c0,0-0.172-0.011-0.5-0.011c-1.521,0-6.9,0.19-11.891,2.641c-6.22,3.05-9.53,8.31-9.821,15.63c-0.368-0.04-0.89-0.08-1.509-0.08
					c-1.979,0-4.75,0.439-6.729,2.55c-1.67,1.79-2.44,4.43-2.3,7.87c-2.45-0.12-11.58,0.07-11.57,8.891
					c-0.021,0.119-0.48,3.039,1.56,5.439c1.69,1.99,4.54,3,8.48,3h57.99c0.02,0,0.59,0.07,1.488,0.07c1.86,0,4.58-0.271,6.94-1.562
					c2.989-1.64,4.51-4.41,4.51-8.22c0-0.09,0.05-1.09-0.18-2.479c4.09-1.84,7.46-4.859,9.75-8.75l0.53-0.899L104.95,56.44z
					 M94.88,68.4c0,3.432-1.351,5.91-3.989,7.36c-2.291,1.25-5.029,1.44-6.461,1.44c-0.83,0-1.371-0.062-1.438-0.07H24.95
					c-3.62,0-6.22-0.89-7.71-2.64c-1.74-2.04-1.351-4.61-1.33-4.721c0-7.211,6.82-7.989,9.759-7.989c0.781,0,1.281,0.06,1.291,0.06
					l0.59,0.06l-0.04-0.59c-0.229-3.43,0.44-6.02,2-7.688c1.73-1.851,4.221-2.24,6-2.24c1.101,0,1.88,0.15,1.89,0.15l0.591,0.119
					l0.01-0.6c0.33-17,17.33-17.86,20.73-17.86c0.288,0,0.449,0.011,0.47,0.011c6.89,0.109,12.189,2.21,15.729,6.25
					c6.09,6.96,4.961,17.42,4.94,17.529l-0.07,0.66l0.65-0.109c5.149-0.841,9.067,0.06,11.53,2.649
					C95.08,63.431,94.88,68.32,94.88,68.4z M95.5,64.931c-0.391-1.701-1.189-3.741-2.79-5.439c-2.601-2.721-6.571-3.761-11.79-3.04
					c0.17-2.46,0.33-11.29-5.229-17.65c-1.642-1.88-3.621-3.35-5.94-4.42c2.7-3.92,6.688-6.78,11.28-8.11
					c4.779-1.37,9.83-0.989,14.318,1.061c-6.64,3.51-10.02,11.33-7.92,18.64c2.11,7.311,9.15,12.14,16.629,11.57
					C101.939,60.781,99,63.32,95.5,64.931z"/>
			</g>
		</g>
		<g>
			<g>
				<g>
					<path fill="#00AEEB" d="M24.269,85.817c-0.199,0-0.401-0.06-0.577-0.185c-0.45-0.318-0.558-0.942-0.239-1.394l0.073-0.104
						c0.319-0.448,0.941-0.559,1.395-0.237c0.45,0.319,0.558,0.942,0.238,1.395l-0.073,0.103
						C24.891,85.669,24.582,85.817,24.269,85.817z"/>
				</g>
			</g>
			<g>
				<g>
					<path fill="#00AEEB" d="M19.995,91.854c-0.199,0-0.401-0.06-0.576-0.183c-0.451-0.319-0.559-0.943-0.239-1.396l0.087-0.123
						c0.318-0.449,0.94-0.559,1.394-0.239c0.451,0.318,0.559,0.942,0.239,1.395l-0.087,0.123
						C20.618,91.706,20.309,91.854,19.995,91.854z"/>
				</g>
			</g>
			<g>
				<g>
					<path fill="#00AEEB" d="M15.734,97.87c-0.202,0-0.406-0.062-0.583-0.188c-0.448-0.322-0.551-0.947-0.229-1.396l0.073-0.104
						c0.321-0.448,0.945-0.551,1.396-0.229c0.449,0.321,0.552,0.945,0.229,1.395l-0.072,0.104
						C16.353,97.726,16.045,97.87,15.734,97.87z"/>
				</g>
			</g>
		</g>
		<g>
			<g>
				<g>
					<path fill="#00AEEB" d="M38.558,85.817c-0.199,0-0.401-0.06-0.577-0.185c-0.45-0.318-0.558-0.942-0.238-1.394l0.072-0.104
						c0.319-0.448,0.942-0.559,1.395-0.237c0.45,0.319,0.558,0.942,0.238,1.395l-0.072,0.103
						C39.18,85.669,38.871,85.817,38.558,85.817z"/>
				</g>
			</g>
			<g>
				<g>
					<path fill="#00AEEB" d="M34.28,91.854c-0.199,0-0.4-0.06-0.576-0.183c-0.451-0.319-0.559-0.943-0.239-1.396l0.087-0.123
						c0.318-0.449,0.94-0.559,1.394-0.239c0.451,0.318,0.559,0.942,0.239,1.395l-0.087,0.123
						C34.903,91.706,34.594,91.854,34.28,91.854z"/>
				</g>
			</g>
			<g>
				<g>
					<path fill="#00AEEB" d="M30.019,97.87c-0.199,0-0.4-0.061-0.576-0.185c-0.45-0.318-0.558-0.942-0.238-1.395l0.072-0.103
						c0.319-0.449,0.942-0.559,1.395-0.237c0.449,0.318,0.558,0.942,0.237,1.395l-0.071,0.103
						C30.642,97.724,30.333,97.87,30.019,97.87z"/>
				</g>
			</g>
		</g>
		<g>
			<g>
				<g>
					<path fill="#00AEEB" d="M52.846,85.817c-0.198,0-0.4-0.06-0.576-0.185c-0.45-0.318-0.558-0.942-0.238-1.394l0.071-0.104
						c0.32-0.448,0.942-0.559,1.396-0.237c0.45,0.319,0.558,0.942,0.237,1.395l-0.071,0.103
						C53.469,85.669,53.16,85.817,52.846,85.817z"/>
				</g>
			</g>
			<g>
				<g>
					<path fill="#00AEEB" d="M48.567,91.854c-0.199,0-0.4-0.06-0.576-0.183c-0.451-0.319-0.559-0.943-0.239-1.396l0.087-0.123
						c0.317-0.449,0.941-0.559,1.393-0.239c0.451,0.318,0.56,0.942,0.24,1.395l-0.087,0.123
						C49.19,91.706,48.881,91.854,48.567,91.854z"/>
				</g>
			</g>
			<g>
				<g>
					<path fill="#00AEEB" d="M44.301,97.87c-0.202,0-0.406-0.062-0.583-0.188c-0.448-0.322-0.551-0.947-0.229-1.396l0.073-0.104
						c0.322-0.448,0.946-0.551,1.396-0.229c0.45,0.321,0.552,0.945,0.229,1.395l-0.072,0.104
						C44.919,97.726,44.611,97.87,44.301,97.87z"/>
				</g>
			</g>
		</g>
		<g>
			<g>
				<g>
					<path fill="#00AEEB" d="M67.128,85.817c-0.198,0-0.401-0.06-0.578-0.185c-0.448-0.318-0.557-0.942-0.237-1.394l0.072-0.104
						c0.319-0.448,0.942-0.559,1.395-0.237c0.451,0.319,0.559,0.942,0.238,1.395l-0.072,0.103
						C67.75,85.669,67.441,85.817,67.128,85.817z"/>
				</g>
			</g>
			<g>
				<g>
					<path fill="#00AEEB" d="M62.854,91.854c-0.199,0-0.399-0.06-0.576-0.183c-0.45-0.319-0.559-0.943-0.238-1.396l0.087-0.123
						c0.317-0.449,0.94-0.559,1.394-0.239c0.451,0.318,0.56,0.942,0.238,1.395l-0.086,0.123
						C63.479,91.706,63.168,91.854,62.854,91.854z"/>
				</g>
			</g>
			<g>
				<g>
					<path fill="#00AEEB" d="M58.594,97.87c-0.199,0-0.4-0.061-0.576-0.185c-0.45-0.318-0.558-0.942-0.238-1.395l0.071-0.103
						c0.32-0.449,0.942-0.559,1.396-0.237c0.449,0.318,0.558,0.942,0.238,1.395l-0.072,0.103
						C59.217,97.724,58.908,97.87,58.594,97.87z"/>
				</g>
			</g>
		</g>
		<g>
			<g>
				<g>
					<path fill="#00AEEB" d="M81.411,85.817c-0.202,0-0.405-0.062-0.583-0.188c-0.448-0.322-0.551-0.946-0.229-1.396l0.072-0.102
						c0.321-0.449,0.945-0.552,1.396-0.23c0.449,0.322,0.552,0.947,0.229,1.396L82.225,85.4
						C82.029,85.671,81.723,85.817,81.411,85.817z"/>
				</g>
			</g>
			<g>
				<g>
					<path fill="#00AEEB" d="M77.139,91.854c-0.199,0-0.4-0.06-0.576-0.183c-0.451-0.319-0.559-0.943-0.238-1.396l0.087-0.123
						c0.315-0.449,0.94-0.559,1.394-0.239c0.451,0.318,0.559,0.942,0.239,1.395l-0.087,0.123
						C77.762,91.706,77.452,91.854,77.139,91.854z"/>
				</g>
			</g>
			<g>
				<g>
					<path fill="#00AEEB" d="M72.88,97.87c-0.196,0-0.397-0.06-0.571-0.181c-0.453-0.315-0.563-0.939-0.246-1.393l0.07-0.104
						c0.315-0.451,0.939-0.562,1.393-0.246c0.453,0.315,0.562,0.938,0.246,1.393l-0.07,0.102
						C73.506,97.722,73.195,97.87,72.88,97.87z"/>
				</g>
			</g>
		</g>
	</g>
</g>
</svg>
