<?xml version="1.0" encoding="utf-8"?>
<!-- Generator: Adobe Illustrator 15.0.0, SVG Export Plug-In . SVG Version: 6.00 Build 0)  -->
<!DOCTYPE svg PUBLIC "-//W3C//DTD SVG 1.1//EN" "http://www.w3.org/Graphics/SVG/1.1/DTD/svg11.dtd">
<svg version="1.1" id="Layer_1" xmlns="http://www.w3.org/2000/svg" xmlns:xlink="http://www.w3.org/1999/xlink" x="0px" y="0px"
	 width="121px" height="121.6px" viewBox="0 0 121 121.6" enable-background="new 0 0 121 121.6" xml:space="preserve">
<g>
	<g>
		<g>
			<g>
				<path fill="#00AEEB" d="M48.132,40.959c-0.033,0-0.065-0.003-0.098-0.009c-0.272-0.055-0.447-0.317-0.394-0.588l1.451-7.345
					c0.053-0.271,0.32-0.445,0.586-0.394c0.272,0.053,0.448,0.315,0.395,0.587l-1.452,7.345
					C48.574,40.794,48.364,40.959,48.132,40.959z"/>
			</g>
			<g>
				<path fill="#00AEEB" d="M38.301,90.602c-0.032,0-0.065-0.003-0.098-0.01c-0.271-0.054-0.446-0.316-0.393-0.587l1.456-7.344
					c0.053-0.271,0.315-0.449,0.588-0.394c0.271,0.053,0.446,0.316,0.393,0.588l-1.455,7.343
					C38.744,90.438,38.535,90.602,38.301,90.602z"/>
			</g>
		</g>
		<g>
			<g>
				<path fill="#00AEEB" d="M31.948,44.192c-0.161,0-0.319-0.077-0.416-0.222l-4.162-6.22c-0.154-0.23-0.092-0.54,0.137-0.694
					c0.228-0.154,0.54-0.093,0.694,0.138l4.162,6.222c0.154,0.229,0.092,0.54-0.137,0.692
					C32.141,44.165,32.044,44.192,31.948,44.192z"/>
			</g>
		</g>
		<g>
			<g>
				<path fill="#00AEEB" d="M61.855,50.115c-0.162,0-0.319-0.078-0.416-0.223c-0.153-0.229-0.092-0.54,0.137-0.693l6.224-4.166
					c0.229-0.154,0.54-0.094,0.692,0.137c0.154,0.229,0.093,0.54-0.137,0.693l-6.223,4.166
					C62.048,50.087,61.951,50.115,61.855,50.115z"/>
			</g>
			<g>
				<path fill="#00AEEB" d="M19.806,78.267c-0.161,0-0.319-0.077-0.416-0.221c-0.153-0.23-0.092-0.541,0.138-0.694l6.221-4.165
					c0.228-0.153,0.539-0.094,0.693,0.138c0.154,0.229,0.093,0.54-0.137,0.692l-6.22,4.166C20,78.24,19.902,78.267,19.806,78.267z"
					/>
			</g>
		</g>
		<g>
			<g>
				<path fill="none" stroke="#00AEEB" stroke-linecap="round" stroke-miterlimit="10" d="M65.094,65.796"/>
			</g>
			<g>
				<path fill="#00AEEB" d="M22.791,57.923c-0.032,0-0.065-0.003-0.098-0.01l-7.342-1.455c-0.271-0.055-0.446-0.317-0.392-0.588
					c0.053-0.271,0.316-0.451,0.587-0.394l7.341,1.455c0.271,0.053,0.448,0.317,0.394,0.587
					C23.234,57.759,23.025,57.923,22.791,57.923z"/>
			</g>
		</g>
	</g>
	<g>
		<g>
			<path fill="#00AEEB" d="M101.139,71.271c-1.947-2.051-4.908-2.84-8.799-2.34c0.12-2.051,0.131-8.5-3.97-13.181
				c-2.83-3.23-7.011-4.91-12.431-5c0,0-0.131,0-0.381,0c-1.148,0-5.209,0.14-8.979,1.99c-4.609,2.26-7.17,6.3-7.43,11.71
				c-0.87-0.091-2.5-0.132-4.052,0.489c0.151-0.439,0.271-0.891,0.361-1.34c0.61-3.061-0.01-6.181-1.75-8.771
				c-1.74-2.601-4.38-4.36-7.44-4.971c-3.06-0.6-6.18,0.021-8.77,1.761c-2.6,1.729-4.36,4.38-4.971,7.439
				c-0.599,3.061,0.02,6.181,1.761,8.771c1.73,2.59,4.379,4.359,7.44,4.96c0.75,0.149,1.51,0.22,2.26,0.22
				c2.639,0,5.229-0.89,7.31-2.56c-0.069,0.55-0.09,1.14-0.069,1.76c-0.141-0.01-0.301-0.01-0.48-0.01c-1.92,0-8.201,0.5-8.201,6.79
				c-0.009,0.09-0.36,2.328,1.201,4.18c1.29,1.521,3.46,2.3,6.46,2.3l43.49-0.01c0,0,0.438,0.061,1.14,0.061
				c1.41,0,3.479-0.211,5.271-1.189c2.279-1.25,3.438-3.37,3.438-6.271C103.561,77.9,103.73,73.99,101.139,71.271z M51.37,69.06
				c-2.51,2.4-6.05,3.42-9.45,2.75c-2.8-0.55-5.22-2.17-6.8-4.539c-1.59-2.371-2.16-5.221-1.61-8.021c0.56-2.8,2.17-5.221,4.54-6.8
				c2.371-1.591,5.221-2.16,8.021-1.601c2.8,0.55,5.22,2.16,6.81,4.53c1.59,2.37,2.16,5.22,1.601,8.02
				c-0.15,0.75-0.37,1.48-0.671,2.182c-0.01,0.021-0.02,0.05-0.02,0.068c-0.28,0.201-0.55,0.432-0.8,0.701
				c-0.65,0.699-1.13,1.569-1.41,2.601C51.51,68.96,51.43,69,51.37,69.06z M102.55,78.04c0,2.528-0.979,4.35-2.93,5.41
				c-0.841,0.47-1.771,0.729-2.62,0.88c-0.861,0.148-1.63,0.189-2.16,0.189c-0.609,0-1.01-0.051-1.08-0.051H50.21
				c-2.68,0-4.59-0.65-5.69-1.939c-1.27-1.479-0.98-3.359-0.971-3.461c0-5.108,4.509-5.868,7.201-5.868c0.569,0,0.94,0.04,0.95,0.04
				l0.6,0.068l-0.05-0.6c-0.17-2.54,0.33-4.45,1.47-5.681c1.271-1.35,3.1-1.641,4.409-1.641c0.821,0,1.39,0.12,1.401,0.12l0.58,0.12
				l0.019-0.601C60.37,52.39,73.029,51.75,75.561,51.75h0.351c5.13,0.08,9.069,1.649,11.7,4.649
				C92.15,61.58,91.311,69.38,91.3,69.46l-0.079,0.66l0.649-0.11c3.83-0.62,6.72,0.04,8.54,1.95
				C102.7,74.361,102.561,77.98,102.55,78.04z"/>
		</g>
	</g>
</g>
</svg>
